<svg xmlns="http://www.w3.org/2000/svg" version="1.1" xmlns:xlink="http://www.w3.org/1999/xlink" viewBox="0 0 17.03601361892602 17.3202472524993"><g transform="matrix(0.8571428571428572,0,0,0.8571428571428572,3.3256653613603304,13.586369104317136)"><g transform="matrix(1,0,0,1,0,0)" clip-path="url(#SvgjsClipPath25437)"><g clip-path="url(#SvgjsClipPath25435b1e14352-ec47-4f22-a318-b338addbc7bb)"><path d=" M 0.4284860602636724 -1.8294948272004046 C 0.011573097946601996 -2.4059745022543666 -0.3138299309592092 -3.0433706839486003 -0.5362227065884724 -3.719156661345462 C -0.765894168373338 -4.417381961168001 -0.882344183244689 -5.147576414298526 -0.882344183244689 -5.889419034178889 C -0.8824268552055979 -6.359144304963624 -0.8351627130969199 -6.827681794487972 -0.7412684245395706 -7.287927054574115 C -0.5594655951559606 -8.175754342244947 -0.2046332378763437 -9.01909828352142 0.3029833940595643 -9.769841193227112 C 1.05617691158342 -10.885580780213171 2.1167826301719472 -11.758942525593707 3.356290755988116 -12.284104316705239 C 3.776184873104339 -12.461590235254084 4.2126189748162375 -12.59707003390031 4.659207842737079 -12.688561584991762 C 5.582071834162275 -12.876536252348618 6.5333598921169385 -12.876536252348618 7.4562238835421395 -12.688561584991763 C 8.344036078890205 -12.506721872037417 9.187358247894423 -12.151857358472327 9.938074716933752 -11.644214808513006 C 11.053814303919818 -10.89102129098915 11.927176049300353 -9.830415572400621 12.452337840411886 -8.590907446584453 C 12.62980503224874 -8.170993077803049 12.765253358914727 -7.734536688980721 12.856700150817293 -7.287927054581425 C 12.950562548655 -6.827678555601111 12.997794874088427 -6.359141098343588 12.997680951642792 -5.889419034178887 C 12.997680951642788 -5.05578379588947 12.851382509474977 -4.240475428654822 12.562868814027201 -3.4662205186879547 L 12.519599672866793 -3.3501186827140153 L 12.396534258944584 -3.364235754372789 C 12.325258777534128 -3.37240476543888 12.253576568803098 -3.3765156867416017 12.181834489748496 -3.3765486262904165 C 12.012719245545327 -3.376125814863377 11.844382523669786 -3.3536312617631925 11.681089930013584 -3.309634972732921 C 11.613005129255694 -3.288111186347347 11.54115366588033 -3.268803083854408 11.467466350136785 -3.2522487599137406 L 11.45537504660842 -3.2495266339885056 L 11.442998869436718 -3.248735318312564 C 11.243587319099802 -3.2357893938541853 11.042181653259515 -3.2333204889452514 10.847486344351204 -3.2309148892903927 C 10.590498665432886 -3.2277496265866326 10.324774861452184 -3.2245843638828724 10.068546845582766 -3.196635094208668 C 9.822036186213893 -3.1697936664807767 9.580431684035851 -3.1373497237672296 9.350412043353572 -3.1001895396250827 C 9.28514432640203 -3.089649214821561 9.221807419699779 -3.077114774514669 9.162205522987968 -3.062934397601822 C 9.0285681316352 -3.031281770564215 8.873406953896854 -2.993963323286879 8.722993670214152 -2.9546824131332095 C 8.57989214337714 -2.917332313228835 8.434416669512306 -2.877513308415528 8.293689089703108 -2.83899206131076 C 8.145364879404887 -2.7983817408215117 7.992007901407688 -2.7564103573696492 7.840106944254219 -2.716939531453754 C 7.512818780685376 -2.631888922603709 7.243328314087203 -2.572983383686722 6.99206976066269 -2.53151844226746 L 6.98890449795893 -2.5310120002348597 L 6.985739235255166 -2.5306005160833696 C 6.320432667551733 -2.4490316962074594 5.643066448946974 -2.3797124429951033 4.987857069268537 -2.3126721789294535 C 4.671109230503216 -2.2802598888429486 4.343599498545113 -2.246739756810122 4.021882197334889 -2.2123016985932065 C 2.993614955391232 -2.102182209129378 1.7808762030724101 -1.963068913299102 0.5823811329205106 -1.7659996573629666 L 0.48574566257470075 -1.7501733438441658 Z" fill="#e5f9e1" transform="matrix(1,0,0,1,0,0)" fill-rule="nonzero"></path></g><g clip-path="url(#SvgjsClipPath25435b1e14352-ec47-4f22-a318-b338addbc7bb)"><path d=" M 6.057715863139607 -12.671215945375156 C 9.80320287312652 -12.671215945375156 12.839512774335873 -9.634906044165799 12.839512774335873 -5.889419034178889 C 12.839512774335873 -5.056511806311336 12.689352711669475 -4.258644036574411 12.414639561610095 -3.5214543528685756 C 12.337387275810478 -3.5303357948179475 12.25969059094058 -3.5347955338025887 12.181929447629617 -3.5348117614784424 C 11.997786452020897 -3.5344632418925777 11.814495449970725 -3.509803780055959 11.636807904787975 -3.4614726246323144 C 11.569514419706024 -3.440107101381928 11.501461271575174 -3.4220017987164173 11.432838376157648 -3.4065553167220664 C 10.9731472736905 -3.3767385420526423 10.510227603265516 -3.4038015381697964 10.051517732236533 -3.353853692704453 C 9.808963651247364 -3.32745540175509 9.566124696614853 -3.2952330274308093 9.325248204858674 -3.2563319488015914 C 9.258302898674138 -3.2455067503547284 9.19167411875998 -3.232497520642273 9.125836654521763 -3.2167978176316208 C 8.978018886256141 -3.1816317489928423 8.830327728498673 -3.146117501456649 8.683269623281959 -3.1077228648600332 C 8.388425402426662 -3.030743675904578 8.095511991820658 -2.946674298492697 7.800572813084252 -2.870011635807616 C 7.524973389467818 -2.798413393448552 7.247443155602091 -2.7339053395459114 6.966557743270381 -2.6875975461898953 C 5.981211463589716 -2.566779468787354 4.992161826545655 -2.475240071394598 4.005232915513111 -2.3695519497160333 C 2.8532672071064913 -2.2461067042693728 1.7005418356509705 -2.110000408007668 0.5569324207822786 -1.9220787612854018 C -0.24897511622219803 -3.037612295971737 -0.7239227849214704 -4.4079811309378325 -0.7239227849214704 -5.889324076297777 C -0.7239227849214704 -9.634811086284687 2.312387116287886 -12.671120987494044 6.0578741262747995 -12.671120987494044 M 6.0578741262747995 -12.987647257870101 C 5.5774987115753145 -12.98774835349258 5.098336071926401 -12.939434422182622 4.627650173580591 -12.843437889086768 C 3.719487786610726 -12.657460606956375 2.856834770352846 -12.294474338526493 2.088919569402392 -11.775193379194617 C 0.947765413116348 -11.00490168194825 0.05449209446828762 -9.92019537439047 -0.4826664616408406 -8.652503458799636 C -0.6642201464596702 -8.222959987048885 -0.8027960960258589 -7.776495208144325 -0.8963662970223485 -7.319642986873099 C -0.9923628301181995 -6.84895708852729 -1.0406767614281578 -6.369794448878376 -1.040575665805678 -5.889419034178895 C -1.0405756658056795 -5.13073721671452 -0.9214668302631697 -4.383925134389253 -0.6865093797630231 -3.669715257912719 C -0.45908904683217855 -2.97847335528008 -0.12629741658233995 -2.3264921652628665 0.3001030049991422 -1.7368159352343007 L 0.4148754306375022 -1.5781413158947792 L 0.6079564555668964 -1.6097939429323844 C 1.802621557847246 -1.8061984937007285 3.0126065316137964 -1.944995263260628 4.038626437037782 -2.054861531708159 C 4.359963906723554 -2.0892679372980343 4.687252070292395 -2.1227564167038206 5.003809993295489 -2.155168706790331 C 5.659652425514678 -2.2222722761100524 6.337809959795379 -2.291686487203524 7.004762464104767 -2.373571833349809 L 7.011282905274514 -2.374363149025747 L 7.017613430682034 -2.3754393383450285 C 7.273746488670338 -2.4176955954402306 7.547699975680815 -2.477550713168343 7.879736033305298 -2.5638357744728566 C 8.032554916642859 -2.603559821405053 8.186386684045623 -2.645657815365068 8.335185683749405 -2.6863630937354266 C 8.475470126780074 -2.724789382959081 8.620565769120457 -2.7644817772642387 8.762781022400418 -2.801610308779349 C 8.911548369477167 -2.8404480821544915 9.065728315777342 -2.8774183505344144 9.19863769670825 -2.909039324944983 C 9.254504583429625 -2.9223017756737413 9.313979869633286 -2.934076552931728 9.375449271340315 -2.9440154778215373 C 9.602810091351436 -2.980732525185161 9.841692467604243 -3.0127966363742544 10.085481001047885 -3.0393531904588063 C 10.334144039055314 -3.0664161865759603 10.584358055787586 -3.069486491398605 10.849258891465308 -3.0727467119834806 C 11.045979968504028 -3.0751523116383392 11.249411402474717 -3.07765286917431 11.453064404834674 -3.0908520146489895 L 11.47781675917808 -3.092466298627908 L 11.501999366234813 -3.0979105504783746 C 11.578788639428044 -3.11516123221387 11.653931976015318 -3.135260650382751 11.725087081595856 -3.1576707103253767 C 11.87401208333273 -3.1975376067569883 12.027476311575754 -3.2179335389215673 12.18164457398628 -3.218348796356466 C 12.247357544911068 -3.2183158197945705 12.313015693696503 -3.214553659651706 12.378302345770926 -3.2070804611310777 L 12.62446482624238 -3.1788463178135338 L 12.710971455936157 -3.4110183371343705 C 12.856235096428854 -3.8011824520185336 12.96675238152288 -4.203414951677875 13.041234966446531 -4.6130268488874435 C 13.203339181304816 -5.508950033489913 13.193262805420705 -6.427554569313437 13.011544802285265 -7.319706292127175 C 12.825658412116358 -8.227858811575173 12.462769358362813 -9.09052159564187 11.943585166036453 -9.8584685489324 C 11.173245117511883 -10.999578372459599 10.088506441925677 -11.89279620847845 8.820800287760356 -12.429896316840447 C 8.391257967699818 -12.611460819338681 7.944793159364228 -12.750047380638035 7.487939815833818 -12.843627804848992 C 7.0172506789876 -12.939592447381463 6.538088071584147 -12.98787456205465 6.0577158631396095 -12.987742215751211 Z" fill="#16490b" transform="matrix(1,0,0,1,0,0)" fill-rule="nonzero"></path></g><g clip-path="url(#SvgjsClipPath25435b1e14352-ec47-4f22-a318-b338addbc7bb)"><path d=" M 11.33123344336693 -8.589356467859611 C 11.33123344336693 -7.318730736384868 10.301187978613306 -6.2886852716312465 9.030562247138565 -6.2886852716312465 C 7.759936515663823 -6.2886852716312465 6.729891050910201 -7.318730736384868 6.729891050910201 -8.589356467859611 C 6.729891050910201 -9.859982199334354 7.759936515663823 -10.890027664087976 9.030562247138565 -10.890027664087976 C 10.301187978613306 -10.890027664087976 11.33123344336693 -9.859982199334354 11.33123344336693 -8.589356467859611 Z" fill="#ffcc00" transform="matrix(1,0,0,1,0,0)" fill-rule="nonzero"></path></g><g clip-path="url(#SvgjsClipPath25435b1e14352-ec47-4f22-a318-b338addbc7bb)"><path d=" M -0.35276408027850925 -1.9940884877959544 C 2.1409881408792497 -0.43994450024951703 5.548076915207118 0.0036670676825245607 8.349872502694854 -0.8974199188240313 C 8.772719947290227 -1.6252404249267354 10.141791024547782 -2.4841344595921644 10.893192737793505 -2.8132901281562237 C 10.893034474658318 -2.8132901281562237 12.617532900921148 -3.301120416059801 12.617532900921148 -3.301120416059801 L 12.62278723700939 -3.5130031014495327 C 12.078963451876287 -3.5745041557836004 10.182939439696675 -3.9114463705989113 9.673680323288636 -3.7888240934552275 C 9.197624812643046 -2.9324939215798445 9.06835548382147 -2.501036962430243 8.00147203689193 -2.9354059632673053 C 8.00147203689193 -2.9354059632673053 7.066041950049573 -2.9145468820495246 7.066041950049573 -2.9145468820495246 L 6.93892499986655 -3.248893581447751 L 3.437701312728839 -2.8482346284057414 C 3.015043783895691 -2.8084789288465117 2.951168782533803 -2.664965917858005 2.7235547415063803 -2.3430270482585183 C 2.1201290596614677 -1.8838107351969384 1.3292881731268906 -2.683071220523516 -0.35276408027850925 -1.9940884877959544 Z" fill="#78af58" transform="matrix(1,0,0,1,0,0)" fill-rule="nonzero"></path></g><g clip-path="url(#SvgjsClipPath25435b1e14352-ec47-4f22-a318-b338addbc7bb)"><path d=" M 6.590556186690661 -4.624991541907658 C 6.533992942174461 -4.126652581827596 6.694788287525495 -3.556715379388468 6.9738695001160655 -3.1444082595966165 C 6.9738695001160655 -3.1444082595966165 7.6879527660844476 -2.8134167386643743 7.6879527660844476 -2.8134167386643743 C 8.264378757066282 -2.902613841656347 9.164674427896898 -2.808827107743923 9.499464264073655 -3.440550238160453 C 9.683682553432519 -4.051034455834754 9.679599364544668 -5.181634640990988 9.42982848459092 -5.774614955913494 C 8.820736982506276 -6.282956146137439 8.526082677413207 -6.790664283820634 7.618411944482827 -6.593215196360049 C 7.1512508220348066 -6.1381453774403925 6.303688427848839 -5.349583480052527 6.590556186690661 -4.624991541907658 Z" fill="#dde2d9" transform="matrix(1,0,0,1,0,0)" fill-rule="nonzero"></path></g><g clip-path="url(#SvgjsClipPath25435b1e14352-ec47-4f22-a318-b338addbc7bb)"><path d=" M 3.542218287207013 -4.29393671572134 C 3.482964569392615 -3.8729567761211854 3.661200512241372 -3.350403556357353 3.8876434060684026 -3.000483764456625 C 4.535097892122625 -2.841366008338582 4.38816639741406 -3.0703727649556587 4.674464408969203 -3.5275316572597966 C 4.674464408969203 -3.5275316572597966 4.4828394048835385 -4.381013092701792 4.4828394048835385 -4.381013092701792 L 3.577067829575416 -4.485466761925892 Z" fill="#dde2d9" transform="matrix(1,0,0,1,0,0)" fill-rule="nonzero"></path></g><g clip-path="url(#SvgjsClipPath25435b1e14352-ec47-4f22-a318-b338addbc7bb)"><path d=" M 0.6332469045699434 -2.6914591666884817 C 1.3011173350634224 -1.9629739554179881 1.5467733735022797 -1.9621509871150113 2.4971435003063887 -2.0122570957155403 L 3.141590986792038 -3.0398596324914084 C 2.9767124525531514 -3.9597166268312645 3.1879620854021313 -4.310174513391633 2.183465966363716 -4.729413558504717 C 1.6620838938002769 -4.712542708293675 1.3378660350540823 -4.8701727909409485 0.9976319470268593 -4.34958203405345 C 0.5040408810024373 -3.7986047552098494 0.2625946419595815 -3.401111064871598 0.6332469045699434 -2.6914591666884817 Z" fill="#dde2d9" transform="matrix(1,0,0,1,0,0)" fill-rule="nonzero"></path></g><g clip-path="url(#SvgjsClipPath25435b1e14352-ec47-4f22-a318-b338addbc7bb)"><path d=" M 9.542226963201461 -3.1560564263464563 C 9.586160809529655 -3.1940395787915836 9.63974870710432 -3.2261669952347525 9.638387644141705 -3.2984932480156814 C 9.636741707535752 -3.386234330163923 9.675927659808305 -3.4552370571059043 9.746671281237354 -3.508191902139819 C 9.800480747201284 -3.548485696358691 9.833810963471883 -3.7082048523904483 9.804500630835062 -3.770022432994894 C 9.759458942560546 -3.8649803141077097 9.790890001208886 -3.982095034146848 9.87521259963707 -4.048882077196199 C 9.89385599696222 -4.063632201395722 9.910220405140663 -4.088985955652845 9.914873341315193 -4.112187331271407 C 9.924843918832039 -4.16188195572045 9.93117444423956 -4.213475737791747 9.929845033903977 -4.2638667200356135 C 9.928627727185212 -4.2956677505190655 9.918021413565427 -4.3263963226885345 9.899363554066763 -4.352177549470536 C 9.843591625226505 -4.425390075808519 9.843401709464278 -4.569631097218885 9.898445627882676 -4.645470791600987 C 9.952729883252168 -4.720740738696415 9.93456127533258 -4.902331860011158 9.854923265705967 -4.956141325975086 C 9.780412981659445 -5.005867603051165 9.738979692867218 -5.136719563224627 9.793707085015239 -5.207526489907751 C 9.836501436770078 -5.262918587223562 9.832006763730739 -5.308814896428089 9.805640125408413 -5.363732204338334 C 9.771550246088914 -5.427353984683921 9.774557245657487 -5.513385824972135 9.68697442664443 -5.5299718015398405 C 9.621073657152134 -5.546684388615696 9.55893955027732 -5.678485927600285 9.59340926112127 -5.733751414407944 C 9.6551318838446 -5.82462610663291 9.579766978868061 -5.876441457093471 9.53497851160985 -5.945602447170639 C 9.506491147276005 -5.991751977391468 9.4748385202384 -6.016725900124139 9.41153326616319 -6.007261764639894 C 9.329236435865415 -5.994948892722267 9.248205710649142 -6.122350716548628 9.289955525711747 -6.193347558993977 C 9.311859143621767 -6.230571048390204 9.292329472739564 -6.242788962426717 9.273116328127738 -6.2708648426090745 C 9.122449823428735 -6.470846140232665 8.945669901423706 -6.56479113728028 8.689346927673181 -6.660445376187922 L 8.689663453943556 -6.660698597204224 C 7.495568098949881 -7.009352284023451 6.782466064419665 -6.206451746587546 6.505790451483954 -5.122887365209191 C 6.477081518760844 -5.447864887004289 6.546464077227277 -5.751761759192339 6.704600601907153 -6.038566212780085 L 6.195309832872079 -5.962030160603156 L 6.189897233648648 -5.984978315205419 C 6.368829534292232 -6.0650911142376005 6.559631570074919 -6.116400022665558 6.742488796471166 -6.187175296721646 C 6.769836666231658 -6.197145874238491 6.800064925052571 -6.214523166482135 6.816271070095825 -6.237471321084401 C 6.9604171336250795 -6.441377544460655 7.135741034786377 -6.610972320128146 7.350504109236533 -6.739513638527862 C 7.369495685459097 -6.750876931634365 7.391652524385422 -6.772305760138822 7.394976050224369 -6.791993694156214 C 7.413682752803594 -6.903126067685246 7.431534834452806 -7.014796535873917 7.4408090541748235 -7.126973446095193 C 7.447899242631247 -7.212783717994143 7.41187855306245 -7.258521764063483 7.325656797012013 -7.266783099720298 C 7.176509618410816 -7.27694359299937 7.0306859656485665 -7.282387844849836 6.880399292474015 -7.267352847006975 C 6.8053509137678505 -7.6426896984189 6.90834856214822 -8.507439469086286 6.34863515824224 -8.473666116037162 C 6.328820613716697 -8.472938105615297 6.3064738590281495 -8.499273091310585 6.28821029322745 -8.516175594148667 C 6.278714505116168 -8.525038329719196 6.275549242412408 -8.540769685356885 6.269218717004888 -8.553968830831568 L 6.079081386389989 -8.346549165854139 L 6.061324262621893 -8.362185563610716 C 6.471763877418524 -8.888030656586459 6.0027352499752835 -8.771359073325844 6.480626612989052 -8.912941274065053 C 6.590144702539169 -8.959312372675146 6.4616350367664905 -9.047876423126366 6.398899529977955 -9.05575792725873 C 6.088228995603856 -9.075097682378706 6.288368556362637 -9.40393682467239 6.031729056341729 -9.377095396944501 C 5.73891060361684 -9.291886524959267 5.744038329196932 -9.514277882525484 5.632114639991959 -9.121816959886212 L 5.999791555660786 -9.121816959886212 C 5.819846370951997 -9.068007493922282 4.917746500380237 -8.977829159492144 5.601823075916969 -8.849604367362804 C 5.6382235970102155 -8.843653673479734 5.647782690375572 -8.827827359960931 5.6529420685827025 -8.794338880555145 C 5.6897224212004 -8.660543226067187 5.671553813280816 -8.332558704703516 5.885493919427991 -8.384405707791114 C 5.88074602537235 -8.322144990408145 5.876726141738574 -8.26956997689868 5.871819984547746 -8.205030270369003 L 5.810065709197376 -8.29242317361983 L 5.441407562090382 -8.067214732247269 C 5.2878923209579956 -8.036321768258563 5.135801448042302 -7.996629373953407 4.980735228185072 -7.974156008756707 C 4.916258826909468 -8.032555105641089 4.790661202824248 -8.094119465229232 4.708047846256098 -8.060346112180106 C 4.631258573062867 -8.013183697894075 4.546619448364311 -8.020875286264213 4.4669181334836185 -8.000206120808656 C 4.019318334544838 -7.906134513252892 4.01703934539813 -7.5796060127329525 4.375536999226052 -7.345724751552084 C 4.314130902773096 -7.291915285588156 4.247470470231899 -7.224716758387317 4.161565240451838 -7.229527957697035 C 3.719093167093149 -7.274316424955248 3.277918851443002 -7.331829248282576 2.835541735965425 -7.377314073335615 C 2.771160292570936 -7.383834514505362 2.7434958965400686 -7.408143732070243 2.7469143802601295 -7.476798280114809 C 2.752137063721335 -7.578561476040711 2.7488135378823855 -7.680799461372177 2.7469143802601295 -7.78281587831438 C 2.7479589169523706 -7.918194164154219 2.9697172219778363 -7.817823683817971 2.9607911811532306 -8.080540488230099 C 2.9611710126776822 -8.375585175723298 2.9608861390343435 -8.670619312340822 2.9599365602232153 -8.965642898082663 C 2.9698754851130236 -9.135427589512382 2.851747881008679 -9.184552466674745 2.70209426037488 -9.20417709543806 C 2.707063722819784 -9.453979628018843 2.693643008955839 -9.702895887042573 2.7069371123116337 -9.94950150429256 L 2.4632118841220705 -9.94950150429256 C 2.4247222896443414 -9.73135159874938 2.4508040543233283 -9.497343727060363 2.444726749932109 -9.27530054839156 C 2.4454231077269357 -9.219275398534997 2.430483067765186 -9.194618002072703 2.3699632448692847 -9.184774035064008 C 2.2260704023563296 -9.16135109105618 2.1788446828162216 -9.09896376316506 2.1787497249351087 -8.954184647095051 C 2.1785176056701663 -8.672434062957645 2.1784120969133745 -8.390725682322955 2.178433198664733 -8.10905950519098 C 2.178433198664733 -7.955639221939708 2.2085981522315707 -7.912275122898187 2.3505918371222707 -7.854635689062707 C 2.3679691293659157 -7.8475771532333205 2.3923416521848724 -7.827952524470006 2.392721483709323 -7.81348727391382 C 2.396045009548272 -7.688079565590827 2.394652293958617 -7.562545246759681 2.394652293958617 -7.430807013029168 C 1.6819617435798881 -7.476070269692944 0.3617623224683959 -7.886604842370688 0.31232091903565573 -6.788416947300962 C 0.4000936538109361 -6.8057309342905326 0.5537671580785113 -6.89131963780022 0.6058673821824101 -6.825767047205338 C 0.623561200696432 -6.783700705872359 0.6054242454038838 -6.750687015872137 0.5547800421437148 -6.73888058598711 C 0.4988498501682659 -6.725871356274653 0.4439958475120951 -6.7077344009821065 0.38907853960184946 -6.691116771787364 C 0.3214052229954485 -6.670700827348108 0.31175117174897893 -6.6225255289968725 0.325773285526638 -6.559726716954262 C 0.39876424347535644 -6.581060587577607 0.46789358092548716 -6.603407342266157 0.5382573708300846 -6.620752981882767 C 0.5655419353365005 -6.627494991441776 0.6011511407538068 -6.6399977791216305 0.6097923079350733 -6.589860017894063 C 0.6171673700348357 -6.547192276647369 0.6057091190472226 -6.5235794168773165 0.5614903990756872 -6.512532650041191 C 0.49935629220086764 -6.496959557538689 0.4380451536290255 -6.477493191910563 0.37717715183570966 -6.457393773741683 C 0.32200662290916315 -6.439193513195061 0.3143466871660625 -6.398773108468037 0.32811557992742113 -6.3479706420726805 C 0.4007267063516884 -6.366139249992264 0.46909638075291626 -6.38364315274406 0.5376876235434078 -6.4001974766847285 C 0.5690870295647126 -6.407762454546717 0.6004231303319423 -6.414314548343502 0.6084945502265315 -6.367595270835994 C 0.6152998650396166 -6.328092792293063 0.6039998771871917 -6.306632311161566 0.5618702306001386 -6.29599702847693 C 0.4977420082219497 -6.279822536060715 0.434784933044152 -6.2580138760318045 0.3724609104071064 -6.235857037105481 C 0.3139035503875358 -6.214808040125473 0.3086492142992934 -6.1725517830302685 0.3295716007711509 -6.12098965358601 C 0.4050314636288028 -6.139063303624483 0.4753319482793248 -6.158972806031137 0.5469618432654262 -6.170969151678389 C 0.564972188049824 -6.17397615124696 0.5989671094882121 -6.156377290614051 0.6049811086253571 -6.140456019214138 C 0.6166609280022339 -6.109404792090246 0.6132740969092103 -6.077467291409301 0.5657951563528014 -6.06667374558948 C 0.5012871024501615 -6.052018579271068 0.43839333252643886 -6.029798435090669 0.37540460472160375 -6.009034311753999 C 0.3202024231680196 -5.990834051207375 0.31045341404043736 -5.951806362070008 0.3269444327270299 -5.899991011609448 C 0.4020244640602306 -5.91702012495568 0.472863043370392 -5.93379601728561 0.5440498015779669 -5.948862667755511 C 0.5730752605714513 -5.955003277400808 0.6034617825275526 -5.959466297813108 0.6077348871776296 -5.915215925214536 C 0.6112166761517661 -5.8789103620024035 0.6077348871776296 -5.852765292069341 0.562408325259778 -5.842414883028043 C 0.49799522923825057 -5.827696411455556 0.4352913750767542 -5.804938172615519 0.37249256303414446 -5.783857523008472 C 0.3205506020654336 -5.76644857813779 0.309187308958933 -5.729383351876753 0.325013622477736 -5.6776313066702695 C 0.3992390328809212 -5.694027367475748 0.4697610859207062 -5.712955638444236 0.5415492440419958 -5.723306047485534 C 0.5614270938216119 -5.726186436545956 0.5975427412715204 -5.708429312777859 0.604221445576455 -5.6914951573127395 C 0.6176421594403998 -5.657405277993238 0.6115332024221414 -5.623568619690037 0.560952304416048 -5.614389357849131 C 0.5043960858378984 -5.603882902049349 0.44872574846907387 -5.58906851841195 0.39442783357120437 -5.570075679996482 C 0.3174802972427857 -5.54355077853897 0.3115929086137912 -5.527312980868676 0.33682005236276225 -5.443465171846061 C 0.40329056914173433 -5.457677201385944 0.47010926481811977 -5.471952536179906 0.5368646552404299 -5.486322828854979 C 0.5716825449817962 -5.49385615408993 0.599473551520814 -5.4886967758828 0.6068169609935385 -5.447643318615026 C 0.6140337599581125 -5.407444482277267 0.6059306874364856 -5.379368602094909 0.5572489470526483 -5.373417908211842 C 0.5135683217407527 -5.368100266869523 0.47014091744515785 -5.358003078844527 0.42747317619846514 -5.346544827856915 C 0.31152960335971613 -5.315303684970797 0.31035845615932445 -5.3097644752392155 0.321468528249524 -5.191446955372646 C 0.32570998027256315 -5.146816751249624 0.34210604107804277 -5.128901364346337 0.38730599248774356 -5.130547300952294 C 0.5158473108874599 -5.13523188975386 0.6444835871682892 -5.139030204998372 0.7730882108220809 -5.140201352198765 C 1.0370078150616364 -5.142575299226586 1.3009590719282298 -5.144506109475881 1.564878676167786 -5.143366614902525 C 1.6433138859669723 -5.143018436005111 1.6540441265327215 -5.119943670894696 1.6281839302429968 -5.053219933099425 L 0.34125142014803145 -5.013970675572793 C 0.43332891220042624 -4.674369640086324 0.6873095915501737 -4.475211310765708 0.997663599653897 -4.3497086445616 C 0.9406888709862069 -4.283238127782628 0.8884620363741575 -4.260131710045178 0.8077478374282632 -4.28998013734164 C 0.14361241692522198 -4.483725867438823 -0.3686853516784252 -3.8579534309053614 -0.40454777811203235 -3.242278182396893 L -0.41654412375928473 -3.2415185193479914 L -0.41654412375928473 -3.7398258268010167 C -0.7023989985359013 -3.3122304881500018 -0.5596139979692623 -2.4343132246349732 0.1887490630808475 -2.1880241336553663 L -0.3527640802785096 -1.9940884877959544 C -0.09818200101504782 -1.848739624439272 0.13785163880437734 -1.7130448123290556 0.37556286785679593 -1.580008820889999 C 0.3929401601004412 -1.5702914643894523 0.4226303242617153 -1.5745012637854536 0.44393254225802403 -1.5809900523281648 C 0.7279515646664594 -1.6673700715137887 1.013679828934925 -1.7490338492708126 1.2941537571151485 -1.846017498514037 C 1.4066155409797618 -1.8849185771432513 1.4804611198584952 -1.8306026691467228 1.584503304931105 -1.7876817068837294 C 1.2639254982942352 -1.6661356190593235 0.9504062274867513 -1.5772233897106887 0.6425844295460372 -1.4396927252322929 C 0.9527801745145721 -1.2963379773789772 1.2688633081121017 -1.1768176576849765 1.577666337490983 -1.0316903627175584 C 1.7137726337526873 -0.9690181611830972 1.8272473016825028 -0.9756652128609957 1.9645880503986737 -1.0392236879525072 C 3.640309778396553 -1.7798951606324813 5.369556098715024 -2.545888734942535 7.208985213751398 -2.7374187811470865 C 7.2103568275896945 -2.7305818137069657 7.211738992303672 -2.7237448462668414 7.213131707893324 -2.7169078788267207 C 5.555483629933919 -2.2428464836845006 3.9497458603161864 -1.6421112751377827 2.4405802557901874 -0.7757155678644416 C 2.7238079625226828 -0.6965840002704287 3.012384963224533 -0.652998332839644 3.2969737329196445 -0.5798491117557365 C 3.3948753083469594 -0.5563945151208731 3.4678979189227155 -0.5812734799724293 3.54873872837676 -0.6355893879689596 C 4.958863262902091 -1.5863393462975193 6.496516231761934 -2.5183509494198173 8.209746322799376 -2.7485605058643223 L 8.215823627190598 -2.727131677359864 C 6.7085571802868555 -2.187707607384988 5.284790363508315 -1.4931540122988096 4.014285566845865 -0.48530271479440934 C 4.32606394316628 -0.4395646687250707 4.642970045066788 -0.441875310498812 4.9569008000257595 -0.4064560208437342 C 5.068286394571094 -0.39648544332689006 5.144126088953198 -0.4383618688976405 5.227467455943213 -0.5082192167696373 C 6.454323279920807 -1.6048244804874816 7.848716458808448 -2.5082537613948226 9.434101589241 -2.986176777035629 C 9.557705097822847 -3.0188106355113984 9.430904673910202 -3.0732531540160792 9.542226963201461 -3.1560564263464563 Z M 7.293181201671431 -7.133177360994566 C 7.287641991939849 -6.971970531492039 7.251557997116978 -6.820417753235983 7.167520272332136 -6.684058235957979 L 7.151693958813335 -6.689122656283995 Z M 7.883471043295738 -6.567070126426989 L 7.7925646984437344 -6.395829414153542 C 7.984854407697189 -6.501580841086183 8.323347601237344 -6.512057860635629 8.414918651257135 -6.397728571775798 C 8.091618718695031 -6.371710112350886 7.785411204733236 -6.278113294200685 7.5077543603593595 -6.115672012243694 C 7.561563826323289 -6.304764806166352 7.676051378318307 -6.478189549705391 7.883471043295738 -6.567006821172914 Z M 7.40846006934239 -6.26722479049975 C 7.415212629777078 -6.275665491043111 7.422313369109182 -6.283905724948569 7.429762287338698 -6.291945492216121 C 7.434826707664716 -6.23296609716938 7.439870026239375 -6.173986702122643 7.444892243062674 -6.115007307075903 C 7.439732864855546 -6.101934772109373 7.448785516188301 -6.058570673067854 7.463377377252637 -6.0548673157044535 L 7.463377377252637 -6.036540444649681 C 7.465719671653418 -6.041858085991996 7.468030313427163 -6.047207379961353 7.47034095520091 -6.052525021303672 C 7.476038428067681 -6.0508157794436395 7.4820840798318615 -6.053316336979611 7.487591636936403 -6.051037347832905 C 7.509495254846427 -6.016219458091538 7.58055540254585 -6.061830893652728 7.613980576697563 -6.066230608810956 C 7.757746808702367 -6.1084552132791226 7.901766261723474 -6.149540323173935 8.048001398637211 -6.182617318428231 C 7.816240863467862 -6.0253037620513314 7.5719775406186605 -5.871345384140418 7.31948453473968 -5.734859256354263 Z M 7.139222823760515 -6.009509101159564 C 7.147262591028068 -5.881126045895037 7.172901218928527 -5.750305738348612 7.227280432179135 -5.633159365682435 C 7.260832216838996 -5.570044027369448 7.347022320262396 -5.643193248453355 7.395039355478445 -5.655316204608758 C 7.395797379231921 -5.654494087915462 7.396505552359765 -5.653627368564965 7.397160081489964 -5.652720689191672 C 7.535355451136151 -5.735523961522049 7.634079994866441 -5.716753953688751 7.822001641588707 -5.750843833008251 C 7.65459089718681 -5.62315713553855 7.442739864424115 -5.556496702997351 7.261560227260863 -5.446567129295748 C 7.201040404364961 -5.414218144463316 7.140752700734002 -5.381510429857789 7.0806971163679835 -5.348443985479171 C 7.056862688208667 -5.564694733400091 7.009193831890031 -5.8178840970739 7.139222823760515 -6.009509101159564 Z M 7.506393297396742 -5.080061360827313 L 7.495378183187655 -5.072369772457177 C 7.494962784889299 -5.073758828548339 7.494466035760364 -5.075122246370303 7.493890509716889 -5.076452961345026 C 7.497910393350664 -5.077624108545419 7.50205688749259 -5.0789218662539595 7.506235034261555 -5.079966402946201 Z M 6.86169258989479 -5.442072456256408 C 6.897565567204077 -5.376657027045358 6.936118466935881 -5.312782025683469 6.9773512890902 -5.250447452170745 C 7.017296904411659 -5.178469378287231 7.042334132398406 -5.167454264078144 7.110070754258879 -5.21879482513314 L 7.237757451728581 -5.2966919402726855 C 7.291524714189795 -5.3179414038906 7.345102060888782 -5.339718411292472 7.398489491825543 -5.362022962478305 C 7.2226908012586835 -5.185306345727352 7.071897686051531 -4.989376584364573 6.999666391151714 -4.736092262809654 C 6.907873772742658 -4.963674651210038 6.809529060536815 -5.188978050463714 6.86169258989479 -5.442072456256408 Z M 7.044359900528813 -4.688898195896584 L 7.034515933520116 -4.681459828542748 C 7.036636659531637 -4.685131533279108 7.038820690797231 -4.688803238015472 7.0408464589276365 -4.692474942751833 C 7.041898808812472 -4.691181905918421 7.043063988236903 -4.689984948873324 7.044328247901773 -4.688898195896584 Z M 6.967918806232995 -4.613280069903745 C 6.970292753260813 -4.591882894026323 6.9951084128583 -4.572859665176724 7.017423514919808 -4.589762168014804 L 7.4225771410011605 -4.896792650279579 C 7.252792449571445 -4.666519788580997 7.133240477250408 -4.4226996025103205 7.0008058857250655 -4.163781113342708 C 6.863496789635931 -4.363762410966299 6.7531240791558025 -4.578810359059794 6.726915703968665 -4.828739502148725 C 6.808600583477045 -4.7584706701252415 6.888924400022811 -4.686650859376911 6.967887153605957 -4.613280069903743 Z M 7.424824477520832 -4.299349314944774 C 7.377598757980723 -4.187510032745234 7.330383589316294 -4.075670750545694 7.283178971527547 -3.9638314683461537 C 7.2237041569363525 -3.882317572062794 7.168593423021927 -3.7977073808843613 7.118078868899397 -3.7103572310290094 C 7.107348628333647 -3.6919354020931205 7.07943101128648 -3.682566224489989 7.060850919215405 -3.6953538858131836 C 7.0178033464442615 -3.7249807447203818 6.992386286933065 -3.7661924651233445 6.9669059221677925 -3.8090817747592993 C 6.913729508744614 -3.8665945980866283 6.726662482952365 -4.078129104578949 6.7637910144674755 -4.150930146765441 C 6.833236878187984 -4.094398554876275 6.898694510901752 -4.025015996409845 6.97618014188981 -3.981461981606099 C 6.985808259176729 -3.9741888767709384 6.9976786937334845 -3.970515761172244 7.009731926549672 -3.9710799199377647 C 7.011156294766363 -3.9693073728236588 7.012580662983058 -3.9675981309636263 7.013973378572712 -3.965825583849522 L 7.018246483222787 -3.9721561092570425 C 7.0448030373073385 -3.9780434978860395 7.062560161075434 -4.002542631213146 7.080443895351682 -4.021122723284218 C 7.179781050849285 -4.1236011032681095 7.287058416083984 -4.218072074270964 7.4012749230048565 -4.303654072221889 C 7.409371471006295 -4.304712667410797 7.417596197769702 -4.30320719925491 7.424792824893793 -4.29934931494477 Z M 6.2892548299196935 -5.832570916019349 C 6.168974847176792 -5.432038573485488 6.301251175566946 -5.478061493198165 5.896509033637083 -5.478219756333355 C 6.060089810167428 -5.835419652452734 5.9319599759192 -5.820226391474683 6.2892548299196935 -5.832570916019349 Z M 6.302200754378075 -6.687413414423966 L 6.5142733555300305 -6.626766981019912 C 6.3557886519527385 -6.536936825487188 6.194581822450215 -6.4918318319586 6.025303573053099 -6.430014251354157 L 6.169892773360882 -6.322395319426297 C 6.168689973533451 -6.317774035878807 6.167487173706022 -6.313152752331316 6.166252721251557 -6.308563121410864 L 5.970354612515817 -6.319831456636252 C 5.982129389773804 -6.241269636328913 5.993714251269569 -6.164227142119382 6.005172502257182 -6.087152995282813 L 5.996911166600366 -6.08398773257905 C 5.953325499169584 -6.156535553749244 5.909739831738801 -6.229083374919437 5.856405155180436 -6.317932299013994 L 5.688646231881127 -5.965005507544692 L 5.667692192782231 -5.971146117189986 C 5.752078096464487 -6.446790143684088 5.693014294412316 -6.426943946531509 6.118045770273285 -6.689122656283995 C 6.2498473092578735 -6.7777500119892915 6.391619425759311 -6.804084997684578 6.546590687735426 -6.756890930771508 L 6.300776386161381 -6.7036828647212925 Z M 5.279251153776735 -6.8295337098228135 C 5.175652105482651 -7.208162434446653 4.950063832585638 -7.029420049565292 4.852668699190925 -7.271625951657052 C 5.042426198281369 -7.290269348982202 5.249276115972123 -7.282577760612063 5.309447759970611 -7.533076650987674 C 5.354964237650688 -7.5352290296262305 5.405260262013443 -7.534247798188065 5.4544484444298815 -7.541053113001151 C 5.492843081026498 -7.546339101716431 5.529370212627896 -7.5669766145449495 5.567669891343398 -7.570521708773161 C 5.614895610883504 -7.574858118677312 5.66310256186178 -7.5671032250531 5.7108663760615235 -7.5671665303071745 C 5.783034365707267 -7.5671665303071745 5.779584229360166 -7.510445022655786 5.787877217644018 -7.464991850229784 C 5.81443377172857 -7.319389765856798 5.84035727327237 -7.173502807840472 5.8630838594853705 -7.0272043656726595 C 5.869414384892891 -6.986720655691562 5.883025014519063 -6.937943957426613 5.812123129954827 -6.9295560112616466 C 5.629930608726366 -6.906481246151232 5.46201342229187 -6.8684980937061075 5.279251153776735 -6.8295337098228135 Z M 5.573082490566828 -6.259786423145912 L 5.342018313192306 -5.691463504685703 C 5.289348341801733 -5.717007174705053 5.245446148100572 -5.73356149864572 5.2079377850610085 -5.75932673705433 C 5.163845675597626 -5.808483266843732 5.267729597535046 -5.948862667755514 5.283904089951264 -6.009382490651413 C 5.369207919817611 -6.261875496530395 5.2962169618688915 -6.166791004909427 5.560579702886974 -6.276119178697317 Z M 4.979912259882099 -7.502246992253047 C 5.038153093631294 -7.509463791217621 5.095887485347887 -7.520732126443009 5.160807023402014 -7.531367409127644 C 5.146246814964717 -7.431629981332148 5.054580807063811 -7.387949356020253 4.920785152575852 -7.4089983530002606 C 4.902078449996626 -7.463884008283468 4.918854342326557 -7.4945554038829085 4.979912259882096 -7.502152034371933 Z M 5.988080083656874 -8.166350760129049 C 6.066641903964213 -8.17372582222881 6.137891967425861 -8.178853547808902 6.186921886707115 -8.255516210493985 C 6.36028332499208 -8.467588811645943 6.594322849308136 -8.43932301570136 6.615276888407032 -8.14071213222859 L 6.520572228310514 -8.24472266467416 L 6.520572228310514 -7.9339888250459865 C 6.41539054866455 -8.125075734472011 6.3803827431609585 -8.151758899064713 6.242282331395886 -8.128969007597636 C 6.2798539996895215 -8.055978049648918 6.306157332757772 -7.985076165084681 6.321223983227672 -7.905374850203991 L 6.310240521645625 -7.902684376905795 L 6.195468096007266 -8.037587873340069 C 6.191068380849041 -7.955797485074896 6.187333370858601 -7.886066747711052 6.182807045192225 -7.8025671175858475 C 5.996594640329992 -8.03891728367565 6.010458490972461 -8.027965474720638 5.742550655726167 -8.08858025549765 C 5.82434104399134 -8.114662020176638 5.9060364743754 -8.140997005871927 5.988080083656874 -8.166350760129049 Z M 5.233418149826281 -7.958931095151621 C 5.252409726048844 -7.969471419955142 5.525698507891532 -8.005048972745412 5.523229602982599 -8.036796557664129 C 5.6786756543642785 -8.045089545947981 5.868021669303236 -8.062371880310515 5.96196666635085 -7.910470923157046 C 5.717513427739421 -7.909426386464805 5.489456249933473 -7.914554112044897 5.247282000468752 -7.907590534096624 C 5.186603914437663 -7.905723029101404 5.129787448905161 -7.909647954854069 5.076642688109021 -7.926233931421773 C 5.1290594384832975 -7.936046245803431 5.181191315214233 -7.947789370434383 5.2333548445722045 -7.958931095151621 Z M 4.278838223626171 -7.59100095846649 C 4.129786002906086 -7.765090407173322 4.37480898880419 -7.861156130232454 4.519144968095674 -7.886225010846239 C 4.540985280751621 -7.89163761006967 4.574948549562973 -7.876159475448281 4.594035083666649 -7.8595101936265 C 4.683232186658622 -7.78177134162214 4.776006036505842 -7.742933568246998 4.889860535960111 -7.808201285198541 C 4.904167523381108 -7.816399315601281 4.931008951108996 -7.817697073309822 4.9443980123459035 -7.809720611296346 C 4.990642500447847 -7.7812332469625005 5.033468504829726 -7.747333283405225 5.091044633411131 -7.705710078850773 C 5.008747803113357 -7.67931178790141 4.948607811741905 -7.657882959396951 4.887201715288949 -7.641613509099622 C 4.870963917618659 -7.637308751822507 4.849598394368274 -7.646519666290452 4.832157796870555 -7.6535148968657625 C 4.645407297348682 -7.737362705888379 4.553171542161099 -7.585240180345647 4.458118703167169 -7.441189074697504 C 4.394053786043056 -7.493637477698817 4.32815301655076 -7.535165724372155 4.278838223626171 -7.59100095846649 Z M 4.731755663907269 -7.182270585529889 L 4.716499097675145 -7.169799450477072 L 4.4249784026587955 -7.204427424456213 L 4.5354777236470785 -7.291915285588156 L 4.563553603829433 -7.245006092318422 C 4.598719672468214 -7.260832405837226 4.642052118882695 -7.293276348550772 4.6550930012221885 -7.283843865693565 C 4.6878851228331495 -7.260041090161286 4.707066614817937 -7.217373348914594 4.731724011280233 -7.182270585529891 Z M 0.6020374143108642 -7.17116051343969 C 0.5916553526425297 -7.1674255034492536 0.5810517225849317 -7.164260240745493 0.5703847872732586 -7.161221588549884 C 0.5688338085484159 -7.160778451771356 0.5667130825368965 -7.162487693631388 0.5554447473115087 -7.166855756162577 C 1.190428098312915 -7.578593128667752 2.806516276971945 -7.094339587619422 3.6313204323178727 -7.081393663161044 C 4.080059725830007 -7.031540775576814 4.529337114001781 -6.986973876707864 4.978582849546517 -6.942438630465953 C 5.063728416277678 -6.933385979133198 5.122697260448738 -6.873404250896936 5.132572880084469 -6.784460368921265 C 5.139884636930155 -6.718591252056008 5.137225816258995 -6.651519335363321 5.142796678617616 -6.5854919553628735 C 5.147291351656956 -6.532442152447848 5.12225412367021 -6.51946457536243 5.075851372433079 -6.524750564077709 C 4.164888766290791 -6.623570065689114 3.253609633878125 -6.723212535603497 2.341380922654331 -6.811618322919528 C 2.2846594150029413 -6.817474058921486 2.2871599725389125 -6.781611632487877 2.2874131935552136 -6.744483100972767 C 2.2876980671985523 -6.119533632742281 2.304790485798859 -5.498192563994083 2.2852608149166564 -4.873148137882486 C 2.1670382529311993 -4.889385935552776 2.059640889392603 -4.9019836811137445 1.9534779783084741 -4.921228478352607 C 1.9386645488548746 -4.923918951650805 1.9205275935623267 -4.958958409781433 1.9197679305134239 -4.979627575236989 C 1.9160329205229862 -5.611477316161673 1.9201794146649132 -6.243643583356731 1.9177421623830169 -6.875619934789567 C 1.9214138671193792 -7.481356258408226 0.973354382089016 -7.292516685501872 0.6020374143108642 -7.17116051343969 Z M 4.0319477327328475 -5.4380842252496695 C 4.090125261227967 -5.712227628022372 4.118865846578113 -5.974501295655973 3.963103268926054 -6.221771618073748 C 4.246742459810038 -6.231837153471705 4.251142174968266 -5.853081818339718 4.226168252235595 -5.649175594963462 C 4.213190675150177 -5.541936494560054 4.129880960787199 -5.476637124981474 4.0319477327328475 -5.4380842252496695 Z M 4.209202444143439 -4.825162755293476 C 4.1772965960895325 -4.9316105400209445 4.1427319273644665 -5.047110976081165 4.108926921688304 -5.159604412572815 C 4.194610583079103 -5.118519302678005 4.2373732822069075 -4.973708533980959 4.209424012532702 -4.825162755293476 Z M 3.640024904753214 -5.2950143510396925 C 4.0364424057721875 -5.354932774021879 4.187615352503792 -4.654491790306706 3.7672368128173517 -4.598086808925693 C 3.8707092506032836 -4.860518739694481 3.8403860339012583 -5.093228853674957 3.6402464731424775 -5.2950143510396925 Z M 3.325967539286091 -5.3210328104646045 C 3.584917681080743 -5.293146846044473 3.703963211369178 -4.701907425609038 3.382404173294142 -4.624675015637282 C 3.5373437826432212 -4.867703886032016 3.4696704660368205 -5.096552379513907 3.3260941497942413 -5.3210328104646045 Z M 3.3900324564102053 -5.537979916180352 C 3.3433764841567744 -5.541145178884115 3.303367563581241 -5.558838997398135 3.3062163000146256 -5.611034179383147 C 3.309001731193935 -5.662058214167765 3.350909809391724 -5.671174170754599 3.3948436557199217 -5.667660729153422 C 3.5249676054715176 -5.65750023587435 3.655123207850152 -5.6474030478493535 3.785215504974712 -5.636482891521382 C 3.8026877550994698 -5.634995218050615 3.8239583204687406 -5.633919028731334 3.8360496239971056 -5.623821840706339 C 3.8526356005648115 -5.60992633743683 3.874032776442232 -5.585838688261213 3.871627176787375 -5.569284364320546 C 3.868461914083613 -5.548805114627215 3.8466532540547034 -5.524369286554181 3.826648793766937 -5.515063414205125 C 3.6873455821744345 -5.505662583974959 3.5362675933239434 -5.53354854839509 3.390254024799469 -5.53788495829924 Z M 3.3038740056138423 -5.858905901714635 C 3.3052667212034974 -5.8799548986946455 3.3375524007818553 -5.902396611264305 3.360848734281533 -5.917210040717906 C 3.3735097850965747 -5.9252181553584204 3.3953184451254854 -5.918634408934598 3.413012263639507 -5.918634408934598 L 3.4132021794017326 -5.9214198401139075 C 3.5426930766125775 -5.9078408631147745 3.672152321196384 -5.894040317726377 3.8016748710342663 -5.880746214370585 C 3.843582949232056 -5.876441457093469 3.877641175924519 -5.861469764504682 3.873241460766293 -5.812788024120845 C 3.868746787726952 -5.761827294590302 3.831934782482217 -5.7502107804675 3.7868614415806663 -5.7536609168145985 C 3.659079786229853 -5.7634415785692195 3.531266478252001 -5.772652493037162 3.403484822901187 -5.782591417926971 C 3.3859809201493904 -5.783952480889587 3.363950691731218 -5.783287775721796 3.352429135489529 -5.79329000586568 C 3.331696664779898 -5.81139530853119 3.3027028584134515 -5.837761946853516 3.3040955740031057 -5.858905901714638 Z M 3.266239032066129 -6.118299180287814 C 3.3044754055275565 -6.238769078792939 3.6703481214552403 -6.1271935684853815 3.792527261820398 -6.1312451047461956 C 3.8169947425204667 -6.128079842042433 3.845956896259877 -6.115418791227392 3.861751557151641 -6.097345141188919 C 3.8943854156274123 -6.060184957046772 3.8633974937575957 -5.993872703402987 3.811677101178149 -5.997765976528611 C 3.6442980094032897 -6.010427027343654 3.47720379127177 -6.028627287890276 3.3108375835621153 -6.050847432070676 C 3.292162533609928 -6.053379642233686 3.265162842746851 -6.095794162464078 3.2664606004553933 -6.118299180287814 Z M 4.949873916823409 -5.350691321998841 L 4.947689885557815 -5.331699745776279 L 4.233669924843508 -5.362592709764981 C 4.326127248420353 -5.410356523964728 4.804271832450424 -5.394783431462226 4.949873916823409 -5.350691321998841 Z M 4.917619889872089 -5.512974340820645 C 4.75036740860538 -5.521932034272288 4.5833048431009 -5.53433986407103 4.4121907413356025 -5.545608199296418 C 4.394560228075657 -5.747710222931528 4.450395462169993 -5.95709235078529 4.324924448592925 -6.148115954957241 C 4.4615688395142685 -6.148464133854654 4.477521763541222 -6.137702240661867 4.49537384519043 -6.022075194093493 C 4.50497535994302 -5.958750204032528 4.509989525697248 -5.894814301461716 4.510377190406255 -5.830766716278204 C 4.510915285065895 -5.7660054413592645 4.536269039323018 -5.737328161263194 4.602771208729027 -5.732200435683102 C 4.712732435057669 -5.7236858790099845 4.822092261472595 -5.707258165577468 4.931578698395673 -5.693362662307959 C 5.005202708885144 -5.683866874196679 5.0385962304098175 -5.652878952326862 5.036253936009036 -5.598404781195142 C 5.033721725846028 -5.541493357781529 4.992953142221593 -5.50895445718687 4.917556584618016 -5.512974340820645 Z M 4.3026409991584496 -6.304923069301537 C 4.3034323148343905 -6.31441885741282 4.304255283137368 -6.323629771880762 4.305046598813308 -6.3329672968568556 L 5.077022519633471 -6.269377169138307 L 5.074553614724539 -6.232565163893572 Z M 2.9782317786509553 -5.238039622372003 C 2.940248626205829 -5.553204829785442 3.0460317057655075 -5.94705846801437 2.895428506320579 -6.226836038399765 L 2.9087859149304487 -6.243833499118958 C 3.039732832985023 -6.205692083538643 3.147763249064371 -6.093040383911805 3.1499156277029288 -5.954401877487093 C 3.1556764058237725 -5.691685073074965 3.15941141581421 -5.428335216122087 3.148206385842898 -5.165903285353299 C 3.141875860435377 -5.019193359033997 3.0457151794951303 -4.905971912120483 2.915338008727234 -4.85760669800702 C 3.001559764777671 -4.985736532255247 2.9827264516902963 -5.111745640491956 2.978168473396881 -5.238039622372003 Z M 2.81715155965658 -5.2547838620748974 C 2.8168983386402795 -5.126938901470008 2.742514665101907 -5.0100140971930935 2.627615628955397 -4.9676945348438135 C 2.714027300768061 -5.100635568401758 2.688831809646127 -5.241964548124667 2.6902878304898565 -5.379590170484177 C 2.6919654197228495 -5.541366747273377 2.690825925149496 -5.70314332406258 2.6906360093872697 -5.864919900851784 C 2.6906360093872697 -5.988016967401031 2.704056723251215 -6.113044844199574 2.631730470470286 -6.226329596367163 L 2.647556783989089 -6.2353189424458435 C 2.9177752610091297 -5.9891564619743844 2.786954953462705 -5.578716847177754 2.8170882544025058 -5.2547838620748974 Z M 1.018301112482415 -5.957472182309741 C 1.1320290014285326 -5.970734633038497 1.64986597976376 -6.0854754060498175 1.6342928872612585 -5.894894938656395 C 1.437571810222539 -5.932878091101522 1.2436678169901674 -5.878435572596839 1.0477380556273883 -5.860678448828743 C 0.9758865922520235 -5.850992744955236 1.0121921554641578 -5.790631185194521 1.0100397768256002 -5.753502653679411 C 1.007191040392216 -5.704441081771121 1.0467568241892224 -5.722926215961084 1.0729651993763603 -5.726661225951521 C 1.2523722894255083 -5.763948020601821 1.4309564111716795 -5.78363595461921 1.6097304486800765 -5.730871025347522 C 1.6255567621988787 -5.72745254162746 1.6328685190445658 -5.6848481056348446 1.637743023608357 -5.653258783851312 C 1.4604883121977652 -5.6938691043405605 1.2939005360988474 -5.650758226315343 1.1259200444102735 -5.633412586698734 C 0.9961442735560904 -5.61999187283479 0.9893706113700431 -5.613059947513554 1.0171932705360986 -5.467046378989079 C 1.2028042754846173 -5.505852499737185 1.391802111526161 -5.50591580499126 1.579628800367313 -5.483822271319012 C 1.6418262124962082 -5.477491745911489 1.641066549447305 -5.469895115422465 1.6342295820071824 -5.391080074098826 C 1.591625146014565 -5.396112841797806 1.5485142679893462 -5.408330755834321 1.506669495045632 -5.404848966860183 C 1.3442598657156775 -5.384496327675004 1.1727659324259299 -5.384971117080566 1.0151675024056912 -5.346481522602839 C 0.999341188886889 -5.332364450944068 0.986205348666283 -5.302167844750191 0.9712969613315701 -5.301882971106853 C 0.9005332189019903 -5.299979786491936 0.829724085419163 -5.303153186558391 0.7594142759418383 -5.311378759218134 C 0.7509313718957602 -5.312359990656299 0.7419736784441175 -5.353096921653698 0.7417521100548543 -5.375475328969285 C 0.7394942226595049 -5.592823367960844 0.7383230754591137 -5.810171406952403 0.7382386684536801 -6.0275194459439625 C 0.7378271843021913 -6.282639619867061 0.7396313840433348 -6.537728141163127 0.7373207422695893 -6.79281666245919 C 0.7367826476099502 -6.850329485786519 0.7526406137557906 -6.874037303437686 0.8138251418194822 -6.880051302574832 C 0.9280278201711636 -6.892902269152098 1.7025992564084107 -7.027742460332299 1.626632951518157 -6.809845775805422 C 1.4459597563875048 -6.868624704214255 1.2689582659932137 -6.819531479678929 1.089836049587403 -6.798988924731523 C 0.9892123482348549 -6.790759241701746 1.0010504307469201 -6.727390682372461 1.0117806713126685 -6.649018777827349 C 1.2055897066639276 -6.6758918581822755 1.3950939847380721 -6.734069386677396 1.586592378315586 -6.66167982864239 C 1.6300830878652564 -6.646106736139887 1.630906056168234 -6.648132504270295 1.6255251095718406 -6.593056933224862 C 1.4488401454479263 -6.63420534837375 1.2750039177573957 -6.599830595410911 1.1022438793861449 -6.566025589734748 C 0.9946249474582856 -6.548015244950349 0.9927890950901044 -6.545103203262888 1.0167817863846094 -6.418967484518032 C 1.1170256562127068 -6.4381806291298584 1.677656986302777 -6.544027013943611 1.6261265094855553 -6.3482238630889825 C 1.4493465874805285 -6.410896064623443 1.276080107076675 -6.357466430183964 1.101579174218355 -6.33622751744173 C 1.0006389465954308 -6.32394629815114 0.9950997368638497 -6.314577120548007 1.0161170812168194 -6.184294907661224 C 1.19286535059481 -6.205787041419757 1.5117655679986859 -6.294889186530618 1.6455612224866454 -6.144792429118293 L 1.6316657192171364 -6.1216227061267645 C 1.46862303734643 -6.155934153835528 1.3045041661564447 -6.115640359616657 1.1408284317449864 -6.105353255829435 C 1.0270688901718326 -6.085317142914629 0.9772160025876038 -6.101586593211959 1.0182378072283402 -5.957472182309741 Z M 1.277441170039293 -2.9818087145044387 C 1.0730285046304355 -3.745713215430012 2.0130798750202845 -4.342555150851101 2.516926392204891 -3.702855558421094 C 1.8415859417305382 -4.167326207570918 1.0634061060110036 -3.354803271515582 1.6375847604731697 -2.739507854531567 C 1.0782195354646027 -3.9300897679240645 2.9277458385259756 -3.879002427885368 2.351636373814515 -2.771540313093622 C 2.474195345704124 -2.8654536575141982 2.549908429578077 -2.988329155674183 2.5966277070855823 -3.1415278705361924 C 2.6178033145737407 -2.8652004364978954 2.4351993091937936 -2.6094788626610814 2.0969276840429028 -2.4559003162746187 L 2.3624299196343395 -2.4785002919794685 C 1.9215721302545674 -2.1813454293504293 1.361478894824136 -2.5287330110881534 1.277377864785218 -2.9818087145044387 Z M 4.640944276936379 -2.4583059159294773 C 3.8419686652531384 -2.2441125887660007 3.0634089980091534 -1.812592324362324 2.2321793593745913 -1.7744192561549728 C 3.1875822538776797 -2.0556845000111377 3.570800609421971 -3.344389557220211 2.8660865210567197 -4.066069453677617 C 1.7064608769069998 -5.157230465544994 0.322259843925468 -3.5712755878257667 1.1052825315817558 -2.3662917291311594 L 1.0856579028184399 -2.359169888047699 C 0.722760533832292 -2.775212017829986 0.6701222150687538 -3.25449609643341 0.7944537340724687 -3.7790750843276477 C 0.7065227361620006 -3.5972940472506796 0.6466359658068501 -3.4073149797709696 0.5977643096607874 -3.2118916604407914 C 0.5249632674742943 -4.348220971090834 1.9373667911463328 -5.013400928286116 2.824241748113004 -4.327488500381202 C 2.8588697220921446 -4.302166398751117 2.908880872811561 -4.287669495567895 2.952181666599006 -4.286624958875654 C 3.200971315114586 -4.275926370936942 3.4389041125562674 -4.29393671572134 3.688801603018164 -4.272317971454656 L 3.6078025304289314 -4.208253054330541 L 3.8473179592224938 -3.943352218652821 C 3.922176422166432 -4.045875077627622 3.946327376596124 -4.239842376114071 4.107249332455311 -4.182297900159705 C 4.0206477448804225 -3.9923821379340705 3.95550663843703 -3.795186271489788 3.971143036193607 -3.579283702466279 L 3.9521514599710432 -3.577796028995511 C 3.816614910996016 -3.763533644452181 3.6294845799496915 -3.9182833380390356 3.5663375890096676 -4.14599233694757 C 3.5593740110613945 -4.161407166314882 3.536584119594319 -4.169700154598734 3.521042679718854 -4.1812533634674605 C 3.5122749020294375 -4.166250018251638 3.49572057808877 -4.150961799392473 3.496100409613221 -4.136274980447025 C 3.499455588079207 -4.034448479267047 3.5049631451837504 -3.932653630714107 3.5134143966027915 -3.8311436558045067 C 3.5150919858357845 -3.8110442376356257 3.5276264261426764 -3.786165272784066 3.5433261291533285 -3.773884053493475 C 3.6751909733919934 -3.6706331840968076 3.8089866278799525 -3.569787914354995 3.948479755234681 -3.463498392762718 C 4.004473252464205 -3.6300861688616344 4.077210989396622 -3.766382380885563 4.223604389445549 -3.864758745718442 C 4.188375015552693 -3.6243570433678265 4.107882384996063 -3.3983572863193245 4.151784578697222 -3.158588636509462 C 4.211734654306447 -3.269942578427756 4.261745805025864 -3.38518979347168 4.377942598880915 -3.451090562963973 C 4.305711303981099 -3.0283380762497156 4.421654876819847 -2.9060956306304817 3.887801669203591 -3.000547069710695 L 3.9185047174300687 -2.9332852372557845 C 3.127948704538831 -2.80271815072566 3.652622650314182 -2.9109068299401972 3.217082502276729 -2.2447139886797114 C 3.782999821082079 -2.400160040061394 4.336920794240178 -2.521547864750609 4.908788806928599 -2.5481993767162727 C 4.819370135547361 -2.518224338911665 4.730267990436502 -2.4879011222096388 4.640944276936379 -2.4583059159294773 Z M 5.1781210103915845 -4.963896219599301 C 5.14925381453329 -4.9189811418329406 5.05486568070715 -4.70386988848537 5.002670498722138 -4.721088917593828 C 4.90017929237437 -4.776386057028525 4.798257833313281 -4.833550701458442 4.730109727301315 -4.9426573068570665 C 5.06344354263434 -4.896729345025502 4.941485970658445 -4.8639688760415805 5.123140397227264 -5.131401921882311 C 5.134788563977102 -5.148589298363731 5.161123549672391 -5.170049779495227 5.177677873613058 -5.167644179840368 C 5.415547365800665 -5.123488765122909 5.6642737090621695 -5.110447882783416 5.895401191690766 -5.0418566399929245 C 5.894620426890505 -5.0333104306927705 5.893839662090244 -5.024743119641259 5.893058897289984 -5.01615470683839 C 5.694090483731595 -5.015173475400224 5.494868849156905 -5.023054979532587 5.296311919750006 -5.034418272639088 C 5.23474756016186 -5.038659724662125 5.2042344276976085 -5.0152367806542975 5.1781210103915845 -4.963896219599301 Z M 5.506960152685269 -4.790724697076559 C 5.623473472810695 -4.78240005616567 5.740334971833536 -4.77686084643409 5.8571331656023 -4.775499783471471 C 5.913569799610352 -4.774866730930722 5.940411227338242 -4.756065070470381 5.932624681086988 -4.683897080824641 L 5.40250648346117 -4.705420867210213 C 5.421498059683733 -4.770941805178056 5.450365255542031 -4.794776233337373 5.506960152685269 -4.790724697076559 Z M 6.929270948620079 -2.9366404157217723 C 6.857830969396202 -3.0403977271510456 6.792531599817622 -3.148428143230392 6.720363610171881 -3.2516790126270614 C 6.706404801648297 -3.271651820287792 6.671871785550268 -3.2907383543914666 6.648733715185778 -3.288680933634023 C 6.273206948011627 -3.2620610742953975 5.90008578049233 -3.193976273537505 5.526394865686359 -3.1589051627798383 C 5.534624548716136 -3.205212956135858 5.542474400221462 -3.249400023480355 5.551716967316444 -3.3022282580061173 C 5.628316324747448 -3.312198835522965 5.67111067650229 -3.360690660144577 5.6616465410180465 -3.4538126888892133 C 5.660253825428391 -3.467518276396495 5.688867800270387 -3.484294168726425 5.703586271842874 -3.4996773454667007 C 5.727800531526644 -3.5249994470967856 5.764042789484701 -3.5464282756012455 5.773855103866358 -3.5764982712869706 C 5.799018942361255 -3.653382502361314 5.808672993607726 -3.735236195880562 5.831684453464065 -3.8130067005119592 C 5.849663145621424 -3.8736847865430484 5.851720566378868 -3.9211320744724176 5.783002713080226 -3.948258375843647 C 5.77211420937929 -3.952563133120762 5.7649290630417545 -3.9662687206280456 5.755180053914172 -3.976555824415268 C 5.8571964708563735 -4.013905924319642 5.892172623732928 -3.9966552425841453 5.919172314596006 -3.9024253718931945 C 5.935631680655561 -3.8449442011929023 5.957155467041133 -3.7889190513363395 5.9745011066577405 -3.7317227542793887 C 5.986719020694256 -3.6916188758227424 6.0104901435994975 -3.677913288315459 6.052967969083965 -3.678767909245474 C 6.241459363092908 -3.6823763087277595 6.4300457149829615 -3.6813001194084833 6.618505456364865 -3.6850984346529945 C 6.664560028704582 -3.686016360837085 6.687888014831295 -3.6730071311246313 6.707987433000176 -3.6289466742882848 C 6.755719594572883 -3.5243030893019593 6.812820933748727 -3.423964261592749 6.864003231668533 -3.3208400027042284 C 6.872454483087575 -3.3038741946120727 6.8789116190032455 -3.269182915378858 6.871283335887182 -3.26386527403654 C 6.82586181608822 -3.2315479418311437 6.850329296788289 -3.202332567075434 6.8710617674979195 -3.1741617290119652 C 6.935158337249071 -3.0870220467774363 7.000837538352104 -3.0009902064892255 7.065725423779194 -2.9146101873036 C 6.986562203558143 -2.8666564573416284 6.978269215274291 -2.8656119206493873 6.929397559128227 -2.936640415721776 Z M 7.353416150923992 -3.099904665981743 C 7.10481641817064 -3.268201683940692 6.912463403663109 -3.4557751517655415 6.822095153470745 -3.742294731709947 L 7.176383007902664 -3.4340614496177437 C 7.256464154307808 -3.62752230607159 7.3481301622087125 -3.8015484495243452 7.5098117811168015 -3.92945671538331 C 7.419506836178514 -3.6658219847870956 7.344300194337161 -3.3999399176712064 7.353637719313258 -3.099904665981743 Z M 7.976339851024073 -5.37354451871999 C 8.22778832021081 -5.983553946988725 8.868089312554535 -6.198728505590368 9.253080215212933 -5.599829149411834 C 8.027110664792392 -6.311728384114619 7.586189570158546 -4.2747235711095115 8.240196150009552 -3.5439910233193483 C 8.06867056409277 -3.8341823080001145 7.887775800572851 -4.688708280134355 8.327367484871118 -4.8115204730402645 C 8.196357261562468 -4.64591392837951 8.194426451313177 -4.387058744465975 8.359399943433175 -4.242849375682644 C 8.186291726164512 -4.540605638225397 8.615279780405181 -4.751823618447341 8.639019250683383 -4.355690991071707 C 8.740909057117435 -4.437607989845031 8.759742370204812 -4.54047902771725 8.718435691920739 -4.789078760470602 C 8.834379264759487 -4.691240490297366 8.849952357261987 -4.362591263765905 8.747967592946821 -4.04657143542245 C 8.832258538747968 -4.1426688111086225 8.888726825383056 -4.220027831588531 8.946999311759289 -4.32460811132078 C 8.962540751634752 -4.187900415145359 8.833049854423905 -3.7980033552961334 8.69007493809504 -3.554088211344345 C 8.951145805901213 -3.680698719494769 9.09237982774301 -4.188058678280548 9.157869113083816 -4.468849132731149 C 9.214464010227054 -4.177644963985175 9.177683657609357 -3.628060400731231 8.709921135247619 -3.262377600565774 C 9.61702212089132 -3.5203148582952206 9.577741210737653 -4.985356700730797 8.968776319161162 -5.527344633495718 L 8.983779664376986 -5.546336209718282 C 9.717709127497944 -5.118392692169854 9.686657900374055 -4.057396633869313 9.283909873947561 -3.4053841695216747 C 8.17787212737251 -2.0500819850254786 7.402952512237847 -4.517214346844611 7.976561419413335 -5.373544518719992 Z" fill="#16490b" transform="matrix(1,0,0,1,0,0)" fill-rule="nonzero"></path></g><g clip-path="url(#SvgjsClipPath25435b1e14352-ec47-4f22-a318-b338addbc7bb)"><path d=" M 10.046611575045706 -5.4982242166211215 C 10.017776031814446 -5.489994533591342 10.006444391334984 -5.443148645575686 10.023220283664912 -5.41152767116512 C 10.036546039647746 -5.38563582224836 10.014357548094384 -5.353255184788888 9.984730689187188 -5.36006049960197 C 9.982912796322527 -5.358686964690933 9.980961660717977 -5.3574993169316425 9.978906605812266 -5.35651540537376 C 9.980014447758581 -5.35335014267 9.981153942331936 -5.35018487996624 9.982293436905291 -5.34701961726248 C 9.845649045983947 -5.233228423062286 9.960136597978966 -5.159794328335042 10.060918562466703 -5.073414309149415 C 9.951242209781398 -4.9635480407018875 10.036451081766636 -4.8668176124749625 10.193099932975745 -4.910213364143521 C 10.188795175698633 -4.772017994497336 10.277549141912075 -4.719474633614908 10.397575903638678 -4.684023691332792 C 10.477846965806048 -4.632113382991118 10.554921112642614 -4.674527903221511 10.6251899446661 -4.723779390892025 C 10.678619579105579 -4.651579748619245 10.728504119316842 -4.57868374855164 10.784307700784144 -4.510693905674861 C 10.816814948751762 -4.471128121877856 10.828463115501602 -4.431562338080848 10.82229085322927 -4.381582839988468 C 10.80434381369895 -4.2341449032473015 10.790100131532022 -4.086263829727608 10.772279702509852 -3.9388258929864417 C 10.760599883132976 -3.8805534066102094 10.732492350323582 -3.891695131327447 10.694730766267718 -3.9054323714617656 C 10.679119553823988 -3.8949126721577674 10.658471336020277 -3.8958115373606645 10.64383334199125 -3.9076480553543984 L 10.375925506744956 -3.916130959400478 C 10.380546790292446 -3.8315234873289565 10.405995502430681 -3.790026893282654 10.456829621453075 -3.7848991677025623 C 10.696408355500711 -3.760748213272871 10.936461878953914 -3.7405854898499147 11.175502518341911 -3.7116866413645813 C 11.658173428038356 -3.6643976165703993 12.145433968655261 -3.5574750424373676 12.622692279128277 -3.512908143568419 C 12.630225604363229 -3.5285445413249956 12.634593666894418 -3.5523156642302354 12.62753513106503 -3.566337778007897 C 12.620793121506019 -3.5796951866177658 12.598889503595998 -3.5887161853234844 12.58195534813088 -3.5931159004817097 C 12.45107173533038 -3.627142474547137 12.320188122529881 -3.661517227509977 12.188291625664178 -3.691239044298289 C 12.163381008185585 -3.696904864538018 12.149548810170153 -3.705292810702984 12.143977947811532 -3.719726408632134 C 12.109508236967578 -3.7260569340396543 12.07620967332402 -3.734001743426095 12.04750074060091 -3.754924129897951 L 12.047025951195348 -3.754924129897951 C 12.045981414503107 -3.7452384260244447 12.044683656794565 -3.7355843747779733 12.04275284654527 -3.7261518919207663 C 11.863852198528722 -3.7516322566860403 11.841727012229438 -3.767110391307428 11.961627163447886 -3.9163841804167774 L 11.912628896793674 -3.9113830653448325 C 11.956436132613721 -3.989913233025133 11.920447095671964 -4.0461282986439215 11.863440714377237 -4.104685658663493 C 11.84403765400318 -4.046381519660221 11.824602941002091 -3.9880773806569536 11.80798531180735 -3.9381611878186487 L 11.839637938844955 -3.880996543388733 C 11.835544199081426 -3.8782744174634978 11.831450459317896 -3.8755628424139434 11.827356719554363 -3.872861818240068 L 11.777472179343096 -3.9222399164187323 C 11.7890886934659 -3.8586181360731455 11.883856658816487 -3.8399430861209574 11.842391717397227 -3.758564182007273 C 11.68802185533482 -3.7850574308377496 11.623260580415884 -3.757329729552808 11.655103123215714 -3.9480051548273423 C 11.657888554395022 -3.966711857406569 11.666561374203326 -3.992033959036652 11.68077340374321 -4.000326947320504 C 11.744078657818424 -4.037202257819315 11.7377481324109 -4.107945879248364 11.764842781155092 -4.163211366056023 L 11.703056853177685 -4.118897688203376 C 11.715717903992726 -4.161818650466369 11.723662713379166 -4.188849993956486 11.73300023835526 -4.220597578875202 L 11.695745096331997 -4.1931547512336 C 11.731892396408941 -4.276211244580276 11.680393572218758 -4.329419310630492 11.648266155775588 -4.388071628531174 L 11.625697832697774 -4.390382270304919 C 11.607181045880775 -4.336287930697653 11.588664259063776 -4.2821619384633465 11.570938787922717 -4.230314935375748 L 11.547452538660814 -4.258074289287727 L 11.541311929015517 -4.2538644898917255 L 11.575623376724284 -4.175524237973651 L 11.567583609456733 -4.169605196717621 L 11.517255932466941 -4.206543812470507 L 11.507760144355657 -4.200624771214475 L 11.565083051920759 -4.084143103716086 L 11.496206935486931 -4.128804960466148 C 11.59167125863235 -4.036410942143377 11.630762253023793 -3.9308810835999974 11.587271543474124 -3.8000607760535754 C 11.51633800628285 -3.8073725328992616 11.445531079599725 -3.8149691633882856 11.375198942322164 -3.8257943618351486 C 11.28521052365425 -3.839626559850581 11.28527382890833 -3.8398481282398453 11.287394554919846 -3.932653630714107 C 11.273087567498852 -4.030460248260308 11.348009335696862 -4.103166332565687 11.400077907173724 -4.176790343055158 L 11.387416856358684 -4.18628613116644 L 11.328732885830963 -4.160457587503753 C 11.35927767092225 -4.208094791195352 11.370419395639491 -4.22794098834793 11.389664192878353 -4.272824413487255 L 11.370419395639491 -4.289157169038658 C 11.362548442382806 -4.269870168297077 11.354645836499085 -4.250604269306855 11.346711577988323 -4.2313594720679895 C 11.348547430356504 -4.372530188655711 11.338386937077434 -4.418109971589864 11.279164871890071 -4.486986088023693 C 11.228868847527316 -4.432606874773088 11.203198566999816 -4.371548957217545 11.21946801729715 -4.296690494273609 L 11.183478980355392 -4.3504999602375385 L 11.170817929540348 -4.345119013641147 C 11.18309914883094 -4.3051417456926515 11.19541202074857 -4.265164477744152 11.211966344689237 -4.211576580169488 L 11.142330565206503 -4.279693033554416 L 11.132265029808543 -4.273014329249479 C 11.149230837900703 -4.237879913237737 11.166196645992859 -4.202777149853032 11.18838513754622 -4.156912493275543 L 11.126694167449926 -4.187140752096456 C 11.188575053308444 -4.049293561347685 11.258400748553402 -4.145580852796082 11.237478362081546 -3.8933094153063657 C 11.239662393347139 -3.8565923679427403 11.225355405926141 -3.84206381213248 11.187213990345828 -3.8487108638103784 C 11.139133649875706 -3.8570671573483057 11.090515214745942 -3.8648537035995574 11.04189677961618 -3.867006082238115 C 11.004609984965878 -3.868683671471109 10.992392070929366 -3.8853962585469635 10.991948934150837 -3.9190746537149757 C 10.989574987123017 -4.093733849708482 10.985998240267769 -4.268424698329028 10.985080314083678 -4.4431155469495724 C 10.985080314083678 -4.466095354178876 10.992233807794179 -4.493095045041953 11.005496258522932 -4.511421916096726 C 11.059305724486862 -4.560198614361674 11.129542903883308 -4.726913000968745 11.18923975847623 -4.717638781246727 C 11.24757555010654 -4.605398565771377 11.323510202369757 -4.639836623988291 11.425874798209374 -4.661898505033504 C 11.5841379333974 -4.65797357928084 11.63851714664801 -4.694912195033725 11.6885916026215 -4.845990183884215 C 11.80975785892145 -4.775784657114809 11.937982651050795 -4.876408358467355 11.846506558912115 -5.001436235265898 C 12.05519232897105 -5.0719899409327205 12.074943568242514 -5.114720987433488 11.981061876448976 -5.256904588086414 C 11.99543216912405 -5.358667784012316 11.954758543380724 -5.420263796227496 11.871005692239223 -5.467299600005378 C 12.057977760150358 -5.522723349948225 11.966723236400941 -5.6954833883194755 11.81982339431941 -5.715804374877619 C 11.923675663629798 -5.797784678905018 11.761455950062068 -5.87561848879049 11.679349035526517 -5.869351268637045 C 11.763766591835815 -6.078037038695977 11.708564410282229 -6.117887696136325 11.509912522994217 -6.100890235417132 C 11.535234624624302 -6.29669338627176 11.535234624624302 -6.29669338627176 11.41017509519872 -6.300744922532572 C 11.379408741718166 -6.3542378622261255 11.357505123808142 -6.346071484450425 11.31632505603222 -6.3180905621491785 C 11.302904342168276 -6.418809221382842 11.205287640384302 -6.527599300511092 11.118242916030887 -6.428558230510425 C 11.032780823029348 -6.618284076973832 11.012048352319717 -6.637465568958622 10.917850134255804 -6.435806682102035 C 10.826880484149726 -6.5676082210866245 10.764461503631566 -6.43479379803683 10.708088174877592 -6.361201440174399 C 10.662128560418989 -6.392854067212003 10.648517930792817 -6.369747649474552 10.636141753621114 -6.32138243536109 C 10.452081727397438 -6.376426353779486 10.56017544873086 -6.263996222541912 10.400741166342442 -6.194265485178067 C 10.342120501068795 -6.098737856778573 10.225955359840782 -6.1666327417742375 10.313284957837539 -6.012674363863324 C 10.242003241748847 -5.996594829328221 10.242003241748847 -5.996594829328221 10.258430955181367 -5.880176467083905 C 10.126850984586039 -5.858399459682034 10.119665838248501 -5.848365576911113 10.172968862179829 -5.7771471660764995 C 10.119855754010729 -5.7354290036409346 10.054176552907695 -5.707194860323392 10.067439003636451 -5.632652923649831 C 10.076491654969207 -5.622049293592233 10.0774095811533 -5.607330822019747 10.072123592438018 -5.593973413409875 C 10.074244318449537 -5.578558584042564 10.07636504446106 -5.56232078637227 10.07725131801811 -5.5459563781938295 C 10.07500398149844 -5.546684388615693 10.072566729216543 -5.547317441156445 10.070034519053536 -5.547950493697197 C 10.080764759619282 -5.527154717733494 10.067122477366073 -5.5049978788071705 10.046611575045706 -5.4982242166211215 Z M 10.99109431322082 -4.8493453623502045 C 11.071618596404488 -4.7912311391091595 11.118844315944596 -4.877073063635148 11.203166914372776 -4.891569966818373 C 11.160245952109783 -4.847256288965724 11.128086883039579 -4.814400862100689 11.096117729731596 -4.781260561592317 C 10.941716215042153 -4.6068862392421455 10.994576102194955 -4.6859861542091235 10.99109431322082 -4.849187099215017 Z M 10.861128626604412 -4.602866355608372 C 10.789403773737195 -4.685606322684674 10.723819530515279 -4.7611294907963995 10.667414549134264 -4.826238944612754 C 10.850493343919773 -4.664842199348003 10.883190507649623 -4.9393021283910805 10.861128626604412 -4.6027080924731845 Z" fill="#16490b" transform="matrix(1,0,0,1,0,0)" fill-rule="nonzero"></path></g><g clip-path="url(#SvgjsClipPath25435b1e14352-ec47-4f22-a318-b338addbc7bb)"><path d=" M 4.565737635095029 -9.993467003247796 C 5.37557009785217 -9.701598129334034 5.270071891935829 -10.313158536327613 5.618820536636168 -10.229025853661657 C 5.8292155485551325 -10.165214157553844 6.016883974261096 -10.048985711071756 6.2036028211559335 -9.935890874666391 C 6.856185032790248 -9.595561828758056 6.9629493437880905 -10.319172535464759 7.469707902660157 -10.05541119436039 C 7.877583654666743 -9.776203371261671 8.24658998067115 -9.416028128200757 8.72406985953343 -9.819915649200604 C 8.810291615583868 -9.894362627993052 8.90132457094402 -9.927091444349937 9.016002038701266 -9.914177172518594 C 9.647566905982611 -9.830930763409691 9.934814496348881 -10.540392745830584 10.058734531201107 -11.045885199621145 C 8.66946907789356 -9.481232539898224 8.737269005008113 -11.113590168854584 7.7833854366028286 -10.778673722169678 C 7.355252003292175 -10.569386552197031 7.090034641344077 -11.48971833594245 6.023784246955295 -11.163949498471414 C 5.83253907439408 -11.134544207953478 5.555578587815031 -10.83207170398212 5.849125050961787 -10.730561729072518 C 5.891919402716629 -10.71942000435528 5.937435880396708 -10.714735415553715 5.9769067063126 -10.69653515500709 C 6.039357339457798 -10.661717265265725 6.052873011202853 -10.609332167518488 5.979628832237835 -10.573501393711918 C 5.588560625188218 -10.402418944573661 5.220313962232714 -10.716634573175972 4.826017187225261 -10.69669341814228 C 4.401871984921345 -10.667256474997307 4.351797528947853 -10.421315562915112 4.787306024358269 -10.305087116433024 L 4.785850003514539 -10.286317108599723 C 4.759609975700364 -10.281252688273707 4.732198800685797 -10.268559984831626 4.707351488461275 -10.272389952703177 C 4.600808745852696 -10.28888097138977 4.4892648881721735 -10.295053233662102 4.39003390240928 -10.332529944074627 C 3.6230274440340207 -10.620822071133139 3.5164213961713653 -9.911201825577058 2.5958047387826055 -10.059810909518617 C 3.562507621138119 -9.579482294222952 3.8673540721372976 -10.263938701284136 4.565737635095029 -9.993467003247796 Z" fill="#8c8e8b" transform="matrix(1,0,0,1,0,0)" fill-rule="nonzero"></path></g><g clip-path="url(#SvgjsClipPath25435b1e14352-ec47-4f22-a318-b338addbc7bb)"><path d=" M 12.574422022895927 -3.3841136041524056 C 11.936843156477437 -3.5239232577775077 11.286983070768358 -3.6073595826486358 10.634432511761077 -3.628060400731231 C 9.860304212302356 -3.6323968106353828 10.147235276398252 -3.763628602333295 9.86809075855361 -3.2304084472577905 L 10.71005063775392 -3.2304084472577905 C 8.698083052735555 -2.587037150091419 7.22193113820978 -1.9361325276900967 5.677567812417962 -0.4135778619271928 C 6.04920130646649 -0.4282330282456037 6.416213516967528 -0.49128506130451655 6.787625442626791 -0.52097522546579 C 6.845106613327083 -0.5267676562136732 6.882899850009984 -0.5546219680067654 6.921832581266239 -0.5943460149389619 C 8.34582096643404 -2.211193856646892 10.397291029995337 -3.365122027929841 12.601674934775307 -3.2050863456277074 C 12.714579855418446 -3.2125880182356195 12.671658893155453 -3.375345826462988 12.574422022895927 -3.3841136041524056 Z" fill="#16490b" transform="matrix(1,0,0,1,0,0)" fill-rule="nonzero"></path></g><g clip-path="url(#SvgjsClipPath25435b1e14352-ec47-4f22-a318-b338addbc7bb)"><path d=" M 7.450051621269805 -0.6417299976142523 C 7.830579503515897 -0.7495704979313764 8.269601440527488 -0.7523242764836464 8.555013178525577 -1.0581519589209947 C 9.370005019489849 -1.873460326155639 10.288089466715597 -2.5418688513087577 11.361366744306729 -2.9927605234594488 C 9.773069572186717 -2.674841537493739 8.510129753386252 -1.8337362792234426 7.450051621269805 -0.6417299976142523 Z" fill="#16490b" transform="matrix(1,0,0,1,0,0)" fill-rule="nonzero"></path></g><g clip-path="url(#SvgjsClipPath25435b1e14352-ec47-4f22-a318-b338addbc7bb)"><path d=" M 4.126620740202326 -3.0373274223283975 C 4.1107944266835235 -3.1376979026646445 4.062397559943023 -3.192425294812665 4.0016878212848965 -3.240410677401675 C 3.865201693498741 -3.348219525091759 3.729823407658901 -3.4574210883714986 3.591944564283092 -3.567698840970518 C 3.7814488423572366 -3.1125657167967855 3.678925983382432 -3.2707971993577765 4.126620740202326 -3.0373274223283975 Z" fill="#16490b" transform="matrix(1,0,0,1,0,0)" fill-rule="nonzero"></path></g><g clip-path="url(#SvgjsClipPath25435b1e14352-ec47-4f22-a318-b338addbc7bb)"><path d=" M 2.3216929886369404 -3.1539357003349373 C 2.3261560090492432 -3.5274366993786845 1.7978103585375296 -3.542661612983771 1.773437835718573 -3.180967043825051 C 1.7571050801671682 -2.8023383192012155 2.3089053273137474 -2.785657384752394 2.3216929886369404 -3.1539357003349373 Z M 2.133391510390225 -3.0076689107941625 C 1.9054925957194637 -2.9988378278506715 1.920685856697515 -3.3417940418031264 2.130827647600179 -3.3425537048520297 C 2.3491674689055815 -3.345560704420601 2.363031319548053 -2.997698333277315 2.133391510390225 -3.0076689107941625 Z" fill="#16490b" transform="matrix(1,0,0,1,0,0)" fill-rule="nonzero"></path></g></g><g><path d=" M 0.12543310546875 0.012886962890624964 L 0.34794799804687504 0.012886962890624964 L 0.34794799804687504 0.653798583984375 L 0.354821044921875 0.653798583984375 L 0.609123779296875 0.012886962890624964 L 0.830779541015625 0.012886962890624964 L 0.547266357421875 0.70105078125 L 0.8625673828125 1.480282470703125 L 0.624588134765625 1.480282470703125 L 0.354821044921875 0.78180908203125 L 0.34794799804687504 0.78180908203125 L 0.34794799804687504 1.480282470703125 L 0.12543310546875 1.480282470703125 L 0.12543310546875 0.012886962890624964 M 1.016351806640625 0.012886962890624964 L 1.1967692871093751 0.012886962890624964 L 1.5524494628906251 0.99487353515625 L 1.557604248046875 0.99487353515625 Q 1.5550268554687499 0.96050830078125 1.550731201171875 0.918410888671875 Q 1.5464355468750002 0.8763134765625 1.5429990234375 0.8226177978515625 Q 1.5395625000000002 0.768922119140625 1.536985107421875 0.70105078125 Q 1.53440771484375 0.633179443359375 1.53440771484375 0.54812548828125 L 1.53440771484375 0.012886962890624964 L 1.7337260742187501 0.012886962890624964 L 1.7337260742187501 1.480282470703125 L 1.55159033203125 1.480282470703125 L 1.19762841796875 0.52406982421875 L 1.19075537109375 0.52406982421875 Q 1.193332763671875 0.562730712890625 1.19762841796875 0.6078350830078125 Q 1.201924072265625 0.652939453125 1.205360595703125 0.7139377441406249 Q 1.208797119140625 0.77493603515625 1.21137451171875 0.8561239013671875 Q 1.213951904296875 0.937311767578125 1.213951904296875 1.0489987792968751 L 1.213951904296875 1.480282470703125 L 1.016351806640625 1.480282470703125 L 1.016351806640625 0.012886962890624964 M 2.3368359375 1.49316943359375 Q 2.301611572265625 1.49316943359375 2.260373291015625 1.4875850830078126 Q 2.2191350097656253 1.482000732421875 2.1787558593750003 1.463958984375 Q 2.1383767089843753 1.445917236328125 2.1010045166015625 1.4128406982421875 Q 2.06363232421875 1.37976416015625 2.0348514404296876 1.325638916015625 Q 2.006070556640625 1.271513671875 1.9888879394531251 1.1920440673828125 Q 1.9717053222656251 1.112574462890625 1.9717053222656251 1.002605712890625 L 1.9717053222656251 0.48283154296874997 Q 1.9717053222656251 0.37200366210937497 1.9893175048828124 0.29339318847656237 Q 2.0069296875 0.21478271484375 2.03614013671875 0.1610870361328125 Q 2.0653505859375 0.107391357421875 2.1027227783203126 0.0756035156249999 Q 2.140094970703125 0.04381567382812501 2.1809036865234375 0.027062622070312514 Q 2.22171240234375 0.010309570312500016 2.262091552734375 0.005154785156249897 Q 2.302470703125 0 2.3368359375 0 Q 2.36948291015625 0 2.4094324951171875 0.0047252197265623685 Q 2.449382080078125 0.00945043945312496 2.4893316650390624 0.0253443603515624 Q 2.52928125 0.041238281250000064 2.5670830078125 0.07259655761718742 Q 2.604884765625 0.103954833984375 2.63409521484375 0.1576505126953125 Q 2.6633056640625 0.21134619140625 2.6809178466796877 0.2908157958984374 Q 2.698530029296875 0.3702854003906251 2.698530029296875 0.48283154296874997 L 2.698530029296875 1.002605712890625 Q 2.698530029296875 1.11171533203125 2.68048828125 1.1903258056640624 Q 2.6624465332031253 1.268936279296875 2.633236083984375 1.3234910888671876 Q 2.604025634765625 1.3780458984375 2.5657943115234376 1.4111224365234376 Q 2.5275629882812503 1.444198974609375 2.4876134033203128 1.4626702880859375 Q 2.4476638183593753 1.4811416015625 2.408143798828125 1.487155517578125 Q 2.368623779296875 1.49316943359375 2.3368359375 1.49316943359375 M 2.3368359375 1.325638916015625 Q 2.36948291015625 1.325638916015625 2.393968139648438 1.31447021484375 Q 2.418453369140625 1.303301513671875 2.434347290039063 1.275809326171875 Q 2.4502412109375 1.248317138671875 2.4584029541015626 1.2032127685546876 Q 2.466564697265625 1.1581083984375 2.466564697265625 1.0893779296875001 L 2.466564697265625 0.42183325195312493 Q 2.466564697265625 0.35138452148437493 2.4584029541015626 0.3041323242187499 Q 2.4502412109375 0.2568801269531249 2.434347290039063 0.2280992431640625 Q 2.418453369140625 0.19931835937499986 2.393968139648438 0.18729052734374996 Q 2.36948291015625 0.17526269531250005 2.3368359375 0.17526269531250005 Q 2.303329833984375 0.17526269531250005 2.2784150390625 0.18729052734374996 Q 2.253500244140625 0.19931835937499986 2.2371767578125 0.2280992431640625 Q 2.220853271484375 0.2568801269531249 2.2126915283203124 0.3041323242187499 Q 2.20452978515625 0.35138452148437493 2.20452978515625 0.42183325195312493 L 2.20452978515625 1.0893779296875001 Q 2.20452978515625 1.1581083984375 2.2126915283203124 1.2032127685546876 Q 2.220853271484375 1.248317138671875 2.2371767578125 1.275809326171875 Q 2.253500244140625 1.303301513671875 2.2784150390625 1.31447021484375 Q 2.303329833984375 1.325638916015625 2.3368359375 1.325638916015625 M 2.842864013671875 0.012886962890624964 L 3.055928466796875 0.012886962890624964 L 3.154728515625 0.899510009765625 L 3.165897216796875 1.106560546875 L 3.18737548828125 1.106560546875 L 3.20799462890625 0.873736083984375 L 3.36607470703125 0.012886962890624964 L 3.543914794921875 0.012886962890624964 L 3.695121826171875 0.873736083984375 L 3.712304443359375 1.106560546875 L 3.734641845703125 1.106560546875 L 3.744951416015625 0.899510009765625 L 3.8351601562499997 0.012886962890624964 L 4.049083740234375 0.012886962890624964 L 3.84375146484375 1.480282470703125 L 3.617800048828125 1.480282470703125 L 3.49666259765625 0.77493603515625 L 3.4588608398437497 0.4682263183593749 L 3.44167822265625 0.4682263183593749 L 3.4047355957031247 0.77493603515625 L 3.277584228515625 1.480282470703125 L 3.054210205078125 1.480282470703125 L 2.842864013671875 0.012886962890624964 M 4.8128510742187505 0.99143701171875 L 4.5173100585937505 0.012886962890624964 L 4.741543212890625 0.012886962890624964 L 4.9211015625000005 0.714796875 L 4.9314111328125 0.714796875 L 5.1092512207031255 0.012886962890624964 L 5.332625244140625 0.012886962890624964 L 5.035365966796875 0.99143701171875 L 5.035365966796875 1.480282470703125 L 4.8128510742187505 1.480282470703125 L 4.8128510742187505 0.99143701171875 M 5.814597656250001 1.49316943359375 Q 5.7793732910156255 1.49316943359375 5.738135009765625 1.4875850830078126 Q 5.696896728515625 1.482000732421875 5.656517578125 1.463958984375 Q 5.616138427734375 1.445917236328125 5.578766235351563 1.4128406982421875 Q 5.541394042968751 1.37976416015625 5.512613159179688 1.325638916015625 Q 5.4838322753906255 1.271513671875 5.466649658203125 1.1920440673828125 Q 5.449467041015626 1.112574462890625 5.449467041015626 1.002605712890625 L 5.449467041015626 0.48283154296874997 Q 5.449467041015626 0.37200366210937497 5.467079223632813 0.29339318847656237 Q 5.4846914062500005 0.21478271484375 5.513901855468751 0.1610870361328125 Q 5.543112304687501 0.107391357421875 5.580484497070313 0.0756035156249999 Q 5.617856689453125 0.04381567382812501 5.658665405273438 0.027062622070312514 Q 5.6994741210937505 0.010309570312500016 5.7398532714843755 0.005154785156249897 Q 5.7802324218750005 0 5.814597656250001 0 Q 5.8472446289062505 0 5.887194213867188 0.0047252197265623685 Q 5.9271437988281255 0.00945043945312496 5.967093383789063 0.0253443603515624 Q 6.00704296875 0.041238281250000064 6.0448447265625 0.07259655761718742 Q 6.082646484375001 0.103954833984375 6.11185693359375 0.1576505126953125 Q 6.1410673828125 0.21134619140625 6.158679565429688 0.2908157958984374 Q 6.176291748046875 0.3702854003906251 6.176291748046875 0.48283154296874997 L 6.176291748046875 1.002605712890625 Q 6.176291748046875 1.11171533203125 6.158250000000001 1.1903258056640624 Q 6.140208251953125 1.268936279296875 6.110997802734375 1.3234910888671876 Q 6.081787353515626 1.3780458984375 6.043556030273438 1.4111224365234376 Q 6.00532470703125 1.444198974609375 5.965375122070313 1.4626702880859375 Q 5.925425537109375 1.4811416015625 5.885905517578125 1.487155517578125 Q 5.8463854980468755 1.49316943359375 5.814597656250001 1.49316943359375 M 5.814597656250001 1.325638916015625 Q 5.8472446289062505 1.325638916015625 5.871729858398438 1.31447021484375 Q 5.896215087890625 1.303301513671875 5.912109008789063 1.275809326171875 Q 5.9280029296875005 1.248317138671875 5.936164672851563 1.2032127685546876 Q 5.944326416015626 1.1581083984375 5.944326416015626 1.0893779296875001 L 5.944326416015626 0.42183325195312493 Q 5.944326416015626 0.35138452148437493 5.936164672851563 0.3041323242187499 Q 5.9280029296875005 0.2568801269531249 5.912109008789063 0.2280992431640625 Q 5.896215087890625 0.19931835937499986 5.871729858398438 0.18729052734374996 Q 5.8472446289062505 0.17526269531250005 5.814597656250001 0.17526269531250005 Q 5.781091552734376 0.17526269531250005 5.756176757812501 0.18729052734374996 Q 5.731261962890626 0.19931835937499986 5.714938476562501 0.2280992431640625 Q 5.6986149902343755 0.2568801269531249 5.690453247070313 0.3041323242187499 Q 5.68229150390625 0.35138452148437493 5.68229150390625 0.42183325195312493 L 5.68229150390625 1.0893779296875001 Q 5.68229150390625 1.1581083984375 5.690453247070313 1.2032127685546876 Q 5.6986149902343755 1.248317138671875 5.714938476562501 1.275809326171875 Q 5.731261962890626 1.303301513671875 5.756176757812501 1.31447021484375 Q 5.781091552734376 1.325638916015625 5.814597656250001 1.325638916015625 M 6.4091162109375 0.012886962890624964 L 6.633349365234375 0.012886962890624964 L 6.633349365234375 1.088518798828125 Q 6.633349365234375 1.157249267578125 6.640222412109376 1.202783203125 Q 6.647095458984375 1.248317138671875 6.662130249023438 1.2753797607421875 Q 6.6771650390625 1.3024423828125 6.700791137695313 1.3140406494140624 Q 6.724417236328126 1.325638916015625 6.757064208984375 1.325638916015625 Q 6.789711181640626 1.325638916015625 6.814196411132813 1.3140406494140624 Q 6.838681640625 1.3024423828125 6.854575561523438 1.2753797607421875 Q 6.870469482421876 1.248317138671875 6.878631225585938 1.202783203125 Q 6.886792968750001 1.157249267578125 6.886792968750001 1.088518798828125 L 6.886792968750001 0.012886962890624964 L 7.1084487304687505 0.012886962890624964 L 7.1084487304687505 1.02923876953125 Q 7.1084487304687505 1.136630126953125 7.09126611328125 1.2130927734374999 Q 7.074083496093751 1.289555419921875 7.045732177734376 1.341103271484375 Q 7.017380859375001 1.392651123046875 6.9808677978515625 1.422720703125 Q 6.944354736328125 1.452790283203125 6.905264282226563 1.4686842041015624 Q 6.866173828125 1.484578125 6.8275129394531255 1.488873779296875 Q 6.788852050781251 1.49316943359375 6.757064208984375 1.49316943359375 Q 6.725276367187501 1.49316943359375 6.687045043945313 1.488873779296875 Q 6.648813720703125 1.484578125 6.61015283203125 1.4686842041015624 Q 6.5714919433593755 1.452790283203125 6.535408447265626 1.422720703125 Q 6.499324951171875 1.392651123046875 6.4709736328125 1.341103271484375 Q 6.442622314453126 1.289555419921875 6.425869262695313 1.2135223388671874 Q 6.4091162109375 1.1374892578125 6.4091162109375 1.02923876953125 L 6.4091162109375 0.012886962890624964 M 7.381652343750001 0.012886962890624964 L 7.623068115234376 0.012886962890624964 Q 7.664306396484376 0.012886962890624964 7.713706420898438 0.01632348632812497 Q 7.7631064453125 0.019760009765624975 7.812506469726563 0.03307653808593747 Q 7.861906494140626 0.04639306640624996 7.9078699951171885 0.07302612304687495 Q 7.9538334960937505 0.09965917968749993 7.989487426757813 0.1460522460937499 Q 8.025141357421875 0.19244531250000008 8.046619628906251 0.26246447753906255 Q 8.068097900390626 0.332483642578125 8.068097900390626 0.43214282226562495 L 8.068097900390626 0.46908544921874995 Q 8.068097900390626 0.636615966796875 8.019986572265626 0.7418594970703125 Q 7.971875244140626 0.84710302734375 7.878229980468751 0.89349609375 L 8.1136318359375 1.480282470703125 L 7.878229980468751 1.480282470703125 L 7.683207275390625 0.9312978515625 L 7.59987158203125 0.9312978515625 L 7.59987158203125 1.480282470703125 L 7.381652343750001 1.480282470703125 L 7.381652343750001 0.012886962890624964 M 7.633377685546876 0.770640380859375 Q 7.691798583984376 0.770640380859375 7.732177734375001 0.75775341796875 Q 7.772556884765626 0.744866455078125 7.797471679687501 0.7143673095703125 Q 7.822386474609376 0.6838681640625 7.8335551757812505 0.6336090087890625 Q 7.844723876953125 0.583349853515625 7.844723876953125 0.509464599609375 L 7.844723876953125 0.39348193359375006 Q 7.844723876953125 0.3367792968750001 7.8344143066406255 0.295541015625 Q 7.824104736328126 0.25430273437499995 7.799619506835938 0.22766967773437496 Q 7.77513427734375 0.20103662109374998 7.734755126953125 0.18814965820312501 Q 7.6943759765625 0.17526269531250005 7.633377685546876 0.17526269531250005 L 7.59987158203125 0.17526269531250005 L 7.59987158203125 0.770640380859375 L 7.633377685546876 0.770640380859375 M 9.02946533203125 1.49316943359375 Q 8.99510009765625 1.49316943359375 8.955150512695312 1.4875850830078126 Q 8.915200927734375 1.482000732421875 8.875251342773437 1.463958984375 Q 8.8353017578125 1.445917236328125 8.798788696289062 1.4128406982421875 Q 8.762275634765626 1.37976416015625 8.734353881835938 1.325638916015625 Q 8.70643212890625 1.271513671875 8.689679077148437 1.1920440673828125 Q 8.672926025390625 1.112574462890625 8.672926025390625 1.002605712890625 L 8.672926025390625 0.48283154296874997 Q 8.672926025390625 0.37200366210937497 8.690108642578124 0.29339318847656237 Q 8.707291259765626 0.21478271484375 8.735642578124999 0.1610870361328125 Q 8.763993896484374 0.107391357421875 8.8009365234375 0.0756035156249999 Q 8.837879150390625 0.04381567382812501 8.877399169921874 0.027062622070312514 Q 8.916919189453125 0.010309570312500016 8.956009643554687 0.005154785156249897 Q 8.99510009765625 0 9.028606201171876 0 Q 9.116237548828124 0 9.175088012695312 0.024485229492187566 Q 9.2339384765625 0.04897045898437491 9.269592407226563 0.09149743652343756 Q 9.305246337890624 0.13402441406249999 9.320281127929688 0.19072705078124996 Q 9.33531591796875 0.24742968749999994 9.33531591796875 0.3110053710937499 Q 9.33531591796875 0.35825756835937494 9.330590698242187 0.3982071533203124 Q 9.325865478515624 0.4381567382812499 9.3164150390625 0.48626806640625 L 9.13599755859375 0.48626806640625 L 9.13599755859375 0.4115236816406249 Q 9.13599755859375 0.2903862304687499 9.109364501953126 0.2302470703124999 Q 9.0827314453125 0.17010791015624993 9.03118359375 0.17010791015624993 Q 9.0002548828125 0.17010791015624993 8.977058349609376 0.18213574218750006 Q 8.95386181640625 0.19416357421874997 8.9383974609375 0.22294445800781237 Q 8.92293310546875 0.251725341796875 8.914771362304688 0.2989775390625 Q 8.906609619140625 0.34622973632812504 8.906609619140625 0.41667846679687504 L 8.906609619140625 1.086800537109375 Q 8.906609619140625 1.155531005859375 8.913053100585937 1.20106494140625 Q 8.91949658203125 1.246598876953125 8.934101806640625 1.274091064453125 Q 8.94870703125 1.301583251953125 8.972333129882813 1.3131815185546876 Q 8.995959228515625 1.32477978515625 9.02946533203125 1.32477978515625 Q 9.050943603515625 1.32477978515625 9.07070361328125 1.3148997802734375 Q 9.090463623046874 1.305019775390625 9.105498413085938 1.2839710693359376 Q 9.120533203125 1.26292236328125 9.129554077148438 1.2307049560546874 Q 9.138574951171876 1.198487548828125 9.138574951171876 1.154671875 L 9.138574951171876 1.011197021484375 L 9.34218896484375 1.011197021484375 L 9.34218896484375 1.146939697265625 Q 9.34218896484375 1.323920654296875 9.2614306640625 1.408115478515625 Q 9.18067236328125 1.492310302734375 9.02946533203125 1.49316943359375 M 9.54494384765625 0.012886962890624964 L 9.786359619140624 0.012886962890624964 Q 9.827597900390625 0.012886962890624964 9.876997924804687 0.01632348632812497 Q 9.92639794921875 0.019760009765624975 9.975797973632812 0.03307653808593747 Q 10.025197998046874 0.04639306640624996 10.071161499023438 0.07302612304687495 Q 10.117125 0.09965917968749993 10.152778930664063 0.1460522460937499 Q 10.188432861328124 0.19244531250000008 10.2099111328125 0.26246447753906255 Q 10.231389404296875 0.332483642578125 10.231389404296875 0.43214282226562495 L 10.231389404296875 0.46908544921874995 Q 10.231389404296875 0.636615966796875 10.183278076171876 0.7418594970703125 Q 10.135166748046874 0.84710302734375 10.041521484375 0.89349609375 L 10.27692333984375 1.480282470703125 L 10.041521484375 1.480282470703125 L 9.846498779296875 0.9312978515625 L 9.7631630859375 0.9312978515625 L 9.7631630859375 1.480282470703125 L 9.54494384765625 1.480282470703125 L 9.54494384765625 0.012886962890624964 M 9.796669189453125 0.770640380859375 Q 9.855090087890625 0.770640380859375 9.89546923828125 0.75775341796875 Q 9.935848388671875 0.744866455078125 9.96076318359375 0.7143673095703125 Q 9.985677978515625 0.6838681640625 9.9968466796875 0.6336090087890625 Q 10.008015380859375 0.583349853515625 10.008015380859375 0.509464599609375 L 10.008015380859375 0.39348193359375006 Q 10.008015380859375 0.3367792968750001 9.997705810546876 0.295541015625 Q 9.987396240234375 0.25430273437499995 9.962911010742188 0.22766967773437496 Q 9.93842578125 0.20103662109374998 9.898046630859374 0.18814965820312501 Q 9.85766748046875 0.17526269531250005 9.796669189453125 0.17526269531250005 L 9.7631630859375 0.17526269531250005 L 9.7631630859375 0.770640380859375 L 9.796669189453125 0.770640380859375 M 10.797556640624999 1.49316943359375 Q 10.762332275390625 1.49316943359375 10.721093994140624 1.4875850830078126 Q 10.679855712890625 1.482000732421875 10.639476562499999 1.463958984375 Q 10.599097412109375 1.445917236328125 10.561725219726561 1.4128406982421875 Q 10.524353027343748 1.37976416015625 10.495572143554686 1.325638916015625 Q 10.466791259765625 1.271513671875 10.449608642578124 1.1920440673828125 Q 10.432426025390624 1.112574462890625 10.432426025390624 1.002605712890625 L 10.432426025390624 0.48283154296874997 Q 10.432426025390624 0.37200366210937497 10.450038208007811 0.29339318847656237 Q 10.467650390625 0.21478271484375 10.496860839843748 0.1610870361328125 Q 10.526071289062498 0.107391357421875 10.563443481445312 0.0756035156249999 Q 10.600815673828125 0.04381567382812501 10.641624389648436 0.027062622070312514 Q 10.68243310546875 0.010309570312500016 10.722812255859374 0.005154785156249897 Q 10.76319140625 0 10.797556640624999 0 Q 10.830203613281249 0 10.870153198242187 0.0047252197265623685 Q 10.910102783203124 0.00945043945312496 10.950052368164062 0.0253443603515624 Q 10.990001953124999 0.041238281250000064 11.0278037109375 0.07259655761718742 Q 11.065605468749999 0.103954833984375 11.094815917968749 0.1576505126953125 Q 11.124026367187499 0.21134619140625 11.141638549804686 0.2908157958984374 Q 11.159250732421874 0.3702854003906251 11.159250732421874 0.48283154296874997 L 11.159250732421874 1.002605712890625 Q 11.159250732421874 1.11171533203125 11.141208984374998 1.1903258056640624 Q 11.123167236328124 1.268936279296875 11.093956787109374 1.3234910888671876 Q 11.064746337890623 1.3780458984375 11.026515014648437 1.4111224365234376 Q 10.988283691406249 1.444198974609375 10.948334106445312 1.4626702880859375 Q 10.908384521484374 1.4811416015625 10.868864501953125 1.487155517578125 Q 10.829344482421874 1.49316943359375 10.797556640624999 1.49316943359375 M 10.797556640624999 1.325638916015625 Q 10.830203613281249 1.325638916015625 10.854688842773436 1.31447021484375 Q 10.879174072265624 1.303301513671875 10.895067993164062 1.275809326171875 Q 10.910961914062499 1.248317138671875 10.919123657226562 1.2032127685546876 Q 10.927285400390623 1.1581083984375 10.927285400390623 1.0893779296875001 L 10.927285400390623 0.42183325195312493 Q 10.927285400390623 0.35138452148437493 10.919123657226562 0.3041323242187499 Q 10.910961914062499 0.2568801269531249 10.895067993164062 0.2280992431640625 Q 10.879174072265624 0.19931835937499986 10.854688842773436 0.18729052734374996 Q 10.830203613281249 0.17526269531250005 10.797556640624999 0.17526269531250005 Q 10.764050537109373 0.17526269531250005 10.739135742187498 0.18729052734374996 Q 10.714220947265623 0.19931835937499986 10.697897460937499 0.2280992431640625 Q 10.681573974609375 0.2568801269531249 10.673412231445312 0.3041323242187499 Q 10.665250488281249 0.35138452148437493 10.665250488281249 0.42183325195312493 L 10.665250488281249 1.0893779296875001 Q 10.665250488281249 1.1581083984375 10.673412231445312 1.2032127685546876 Q 10.681573974609375 1.248317138671875 10.697897460937499 1.275809326171875 Q 10.714220947265623 1.303301513671875 10.739135742187498 1.31447021484375 Q 10.764050537109373 1.325638916015625 10.797556640624999 1.325638916015625 M 11.39722998046875 0.012886962890624964 L 11.619744873046875 0.012886962890624964 Q 11.661842285156249 0.012886962890624964 11.712101440429688 0.016753051757812498 Q 11.762360595703125 0.020619140625000032 11.812619750976562 0.03479479980468736 Q 11.86287890625 0.04897045898437491 11.909701538085937 0.07818090820312507 Q 11.956524169921874 0.107391357421875 11.992607666015624 0.1576505126953125 Q 12.028691162109375 0.20790966796875 12.050598999023437 0.2835131835937499 Q 12.0725068359375 0.35911669921875 12.0725068359375 0.46736718750000006 L 12.0725068359375 0.5189150390625 Q 12.0725068359375 0.636615966796875 12.052317260742187 0.7203812255859375 Q 12.032127685546875 0.804146484375 11.99862158203125 0.8612786865234375 Q 11.965115478515624 0.918410888671875 11.920870239257813 0.952776123046875 Q 11.876625 0.987141357421875 11.828943237304687 1.0047535400390624 Q 11.781261474609375 1.02236572265625 11.732720581054688 1.0279500732421876 Q 11.6841796875 1.033534423828125 11.64122314453125 1.033534423828125 L 11.619744873046875 1.033534423828125 L 11.619744873046875 1.480282470703125 L 11.39722998046875 1.480282470703125 L 11.39722998046875 0.012886962890624964 M 11.63091357421875 0.870299560546875 Q 11.691052734374999 0.870299560546875 11.732291015625 0.8526873779296875 Q 11.773529296875 0.8350751953125 11.798014526367187 0.7977030029296875 Q 11.822499755859376 0.760330810546875 11.833238891601562 0.7014803466796875 Q 11.84397802734375 0.6426298828125 11.84397802734375 0.5601533203125 L 11.84397802734375 0.4278471679687499 Q 11.84397802734375 0.36255322265625 11.834527587890625 0.31487145996093746 Q 11.825077148437499 0.2671896972656249 11.800591918945312 0.23626098632812487 Q 11.776106689453124 0.20533227539062504 11.734868408203125 0.19029748535156243 Q 11.693630126953124 0.17526269531250005 11.63091357421875 0.17526269531250005 L 11.619744873046875 0.17526269531250005 L 11.619744873046875 0.870299560546875 L 11.63091357421875 0.870299560546875" fill="#16490b" fill-rule="nonzero"></path></g><g></g></g><defs><clipPath id="SvgjsClipPath25437"><path d=" M -1.0406073184327171 -12.987742215751213 h 14.196678015771685 v 12.582742215751214 h -14.196678015771685 Z"></path></clipPath><clipPath id="SvgjsClipPath25435b1e14352-ec47-4f22-a318-b338addbc7bb"><path d=" M -1.0406073184327171 -12.987742215751211 L 13.156070697338969 -12.987742215751211 L 13.156070697338969 -0.40499999999999936 L -1.0406073184327171 -0.40499999999999936 Z"></path></clipPath></defs></svg>